<?xml version="1.0" encoding="UTF-8"?>
<svg version="1.1" xmlns="http://www.w3.org/2000/svg" width="1024" height="1024">
<path d="M0 0 C2.07045885 1.78557013 3.98288721 3.65533983 5.890625 5.61328125 C6.56867188 6.25652344 7.24671875 6.89976563 7.9453125 7.5625 C11.50455221 10.97165128 11.50455221 10.97165128 12.890625 12.61328125 C12.890625 13.27328125 12.890625 13.93328125 12.890625 14.61328125 C13.550625 14.61328125 14.210625 14.61328125 14.890625 14.61328125 C16.1953125 15.87109375 16.1953125 15.87109375 17.765625 17.73828125 C18.39082031 18.475625 19.01601563 19.21296875 19.66015625 19.97265625 C20.39621094 20.8440625 21.13226562 21.71546875 21.890625 22.61328125 C22.76790019 23.61991337 23.64690714 24.62503805 24.52734375 25.62890625 C30.35379594 32.30046183 35.94842989 39.12423667 41.390625 46.11328125 C41.97787354 46.86657715 42.56512207 47.61987305 43.17016602 48.39599609 C45.63017372 51.57953547 48.01531335 54.74655403 50.171875 58.14453125 C51.02265625 59.3665625 51.02265625 59.3665625 51.890625 60.61328125 C52.550625 60.61328125 53.210625 60.61328125 53.890625 60.61328125 C53.9949585 61.17192871 54.09929199 61.73057617 54.20678711 62.30615234 C55.02429083 65.06424237 56.28568414 67.10169217 57.83203125 69.52734375 C58.70698242 70.91566406 58.70698242 70.91566406 59.59960938 72.33203125 C60.21126953 73.29109375 60.82292969 74.25015625 61.453125 75.23828125 C62.66679659 77.14457171 63.87664114 79.05330595 65.08203125 80.96484375 C65.88942749 82.23062256 65.88942749 82.23062256 66.71313477 83.52197266 C67.890625 85.61328125 67.890625 85.61328125 67.890625 87.61328125 C68.550625 87.94328125 69.210625 88.27328125 69.890625 88.61328125 C70.99967621 90.72507564 72.030552 92.87838596 73.015625 95.05078125 C73.82386719 96.81228516 73.82386719 96.81228516 74.6484375 98.609375 C75.890625 101.61328125 75.890625 101.61328125 75.890625 103.61328125 C76.550625 103.94328125 77.210625 104.27328125 77.890625 104.61328125 C79.11945536 107.2663704 80.24718199 109.90059626 81.328125 112.61328125 C81.62783203 113.34417969 81.92753906 114.07507813 82.23632812 114.828125 C100.52441661 159.97312435 102.12221675 204.93298629 94.890625 252.61328125 C95.61765625 251.76056641 95.61765625 251.76056641 96.359375 250.890625 C101.46933286 245.00434662 106.83279938 239.81642253 112.94921875 234.98828125 C113.58988281 234.47265625 114.23054688 233.95703125 114.890625 233.42578125 C115.468125 232.97847656 116.045625 232.53117188 116.640625 232.0703125 C118.3247093 230.42726007 118.3247093 230.42726007 117.890625 226.61328125 C118.62152344 226.68546875 119.35242188 226.75765625 120.10546875 226.83203125 C123.65130442 226.55353644 124.80403037 225.44412593 127.453125 223.11328125 C132.21315852 219.09051608 137.19255076 215.66023134 142.421875 212.27734375 C144.93065144 210.70066679 144.93065144 210.70066679 146.890625 208.61328125 C154.54937332 204.02724605 162.65684769 200.21003004 170.703125 196.36328125 C171.79560547 195.83476562 172.88808594 195.30625 174.01367188 194.76171875 C175.07263672 194.25382813 176.13160156 193.7459375 177.22265625 193.22265625 C178.16858643 192.76858398 179.1145166 192.31451172 180.08911133 191.84667969 C182.97731339 190.57511569 185.88329029 189.56457251 188.890625 188.61328125 C188.560625 187.95328125 188.230625 187.29328125 187.890625 186.61328125 C189.045625 186.55140625 190.200625 186.48953125 191.390625 186.42578125 C196.23861672 185.89747446 200.74752912 184.60788484 205.390625 183.17578125 C206.10927734 182.95833252 206.82792969 182.74088379 207.56835938 182.5168457 C209.36374899 181.94537061 211.13061128 181.28585792 212.890625 180.61328125 C213.220625 179.95328125 213.550625 179.29328125 213.890625 178.61328125 C215.18226563 178.64292969 216.47390625 178.67257812 217.8046875 178.703125 C222.74369973 178.70215922 227.41254601 178.03668223 232.265625 177.17578125 C245.83087276 174.81316727 259.14871026 174.37771428 272.890625 174.36328125 C273.81837738 174.36127716 274.74612976 174.35927307 275.70199585 174.35720825 C290.30550532 174.34950241 304.49582447 175.18269969 318.96728516 177.25732422 C323.41746703 177.79919537 327.8840659 178.02609503 332.36010742 178.25415039 C333.19517822 178.37266357 334.03024902 178.49117676 334.890625 178.61328125 C335.220625 179.27328125 335.550625 179.93328125 335.890625 180.61328125 C336.963125 181.04640625 338.035625 181.47953125 339.140625 181.92578125 C342.94856184 183.50525402 345.31905081 185.30697158 347.890625 188.61328125 C350.17839712 194.93188996 350.11122741 200.94618627 349.890625 207.61328125 C349.230625 207.61328125 348.570625 207.61328125 347.890625 207.61328125 C347.84744141 208.268125 347.80425781 208.92296875 347.75976562 209.59765625 C344.49047569 252.06843195 324.92826613 300.54315743 297.5390625 333.4375 C295.58868238 335.55686359 295.58868238 335.55686359 295.890625 338.61328125 C295.3234375 338.83371094 294.75625 339.05414063 294.171875 339.28125 C291.17890896 341.02885517 289.5355383 343.21158445 287.390625 345.92578125 C286.26140625 347.34310547 286.26140625 347.34310547 285.109375 348.7890625 C283.63303164 350.66828124 282.17449726 352.56163158 280.734375 354.46875 C280.1259375 355.17644531 279.5175 355.88414062 278.890625 356.61328125 C278.230625 356.61328125 277.570625 356.61328125 276.890625 356.61328125 C276.890625 357.27328125 276.890625 357.93328125 276.890625 358.61328125 C276.230625 358.61328125 275.570625 358.61328125 274.890625 358.61328125 C274.890625 359.27328125 274.890625 359.93328125 274.890625 360.61328125 C274.230625 360.61328125 273.570625 360.61328125 272.890625 360.61328125 C272.890625 361.27328125 272.890625 361.93328125 272.890625 362.61328125 C271.2109375 364.33984375 271.2109375 364.33984375 269.015625 366.23828125 C268.29632812 366.86992187 267.57703125 367.5015625 266.8359375 368.15234375 C264.890625 369.61328125 264.890625 369.61328125 262.890625 369.61328125 C262.890625 370.27328125 262.890625 370.93328125 262.890625 371.61328125 C260.51852331 373.67197054 258.13908339 375.59211262 255.640625 377.48828125 C254.88934326 378.0603833 254.13806152 378.63248535 253.36401367 379.22192383 C247.51025698 383.5887076 241.45924807 387.53666119 235.203125 391.30078125 C234.3668457 391.80528809 233.53056641 392.30979492 232.66894531 392.82958984 C229.24109755 394.8456855 226.16812121 396.52304108 222.37109375 397.7578125 C221.55253906 398.04011719 220.73398437 398.32242187 219.890625 398.61328125 C219.560625 399.60328125 219.230625 400.59328125 218.890625 401.61328125 C217.900625 401.61328125 216.910625 401.61328125 215.890625 401.61328125 C213.50295113 402.56721516 211.16886206 403.55602056 208.828125 404.61328125 C202.14569257 407.61328125 202.14569257 407.61328125 199.890625 407.61328125 C199.560625 408.27328125 199.230625 408.93328125 198.890625 409.61328125 C196.82421875 410.46484375 196.82421875 410.46484375 194.328125 411.23828125 C193.50183594 411.49867188 192.67554688 411.7590625 191.82421875 412.02734375 C190.86708984 412.31738281 190.86708984 412.31738281 189.890625 412.61328125 C192.94931008 413.62521754 196.01311771 414.62067495 199.078125 415.61328125 C199.94244141 415.89945312 200.80675781 416.185625 201.69726562 416.48046875 C202.53837891 416.75117188 203.37949219 417.021875 204.24609375 417.30078125 C205.01590576 417.55214844 205.78571777 417.80351562 206.57885742 418.0625 C209.08859087 418.66044684 211.31985495 418.70871587 213.890625 418.61328125 C214.220625 419.27328125 214.550625 419.93328125 214.890625 420.61328125 C217.21037412 421.70368415 219.5215886 422.70401094 221.890625 423.67578125 C258.56331454 439.3005295 288.20488269 464.68713241 311.640625 496.73828125 C312.18412598 497.47860596 312.72762695 498.21893066 313.28759766 498.98168945 C316.50442237 503.44378451 319.25660409 507.93868898 321.72363281 512.85888672 C322.84936853 514.94105799 322.84936853 514.94105799 325.890625 515.61328125 C325.9525 516.41765625 326.014375 517.22203125 326.078125 518.05078125 C327.15599493 522.77682635 329.40653919 526.48841552 331.890625 530.61328125 C332.550625 530.61328125 333.210625 530.61328125 333.890625 530.61328125 C333.9525 531.50015625 334.014375 532.38703125 334.078125 533.30078125 C334.92167219 539.31725751 337.34113987 545.13307956 339.890625 550.61328125 C340.550625 550.94328125 341.210625 551.27328125 341.890625 551.61328125 C342.24566392 553.94341063 342.57411904 556.27760586 342.890625 558.61328125 C343.6384275 561.37806768 344.54298 564.08564281 345.453125 566.80078125 C346.81237781 570.85607268 347.890625 574.26993534 347.890625 578.61328125 C348.550625 578.94328125 349.210625 579.27328125 349.890625 579.61328125 C350.3828125 581.37890625 350.3828125 581.37890625 350.765625 583.86328125 C351.40778957 587.81466484 352.10655865 591.74193994 352.90625 595.6640625 C353.08816895 596.56930664 353.27008789 597.47455078 353.45751953 598.40722656 C353.82172217 600.21390107 354.1922058 602.01932405 354.56982422 603.82324219 C355.95954732 610.84154109 357.10676151 618.03243485 354.765625 624.92578125 C350.06494253 631.66342613 345.12442699 633.48665952 337.40234375 635.71875 C334.73827841 636.34085321 334.73827841 636.34085321 333.890625 638.61328125 C332.88 638.55140625 331.869375 638.48953125 330.828125 638.42578125 C324.07327256 638.40157031 317.45807642 640.19388805 310.890625 641.61328125 C307.14229393 642.4008913 303.39272185 643.00621347 299.6015625 643.55078125 C298.41304687 643.72351563 297.22453125 643.89625 296 644.07421875 C293.50276339 644.43469851 291.0053661 644.79406683 288.5078125 645.15234375 C287.321875 645.32507813 286.1359375 645.4978125 284.9140625 645.67578125 C283.28863525 645.90974609 283.28863525 645.90974609 281.63037109 646.1484375 C278.81038752 646.55498259 278.81038752 646.55498259 275.890625 647.61328125 C273.89114133 647.65872406 271.89025528 647.65173568 269.890625 647.61328125 C263.82867881 647.558853 257.91145392 647.93759704 251.890625 648.61328125 C251.890625 648.94328125 251.890625 649.27328125 251.890625 649.61328125 C250.1206382 649.80861086 248.34958221 649.99427007 246.578125 650.17578125 C245.59199219 650.28019531 244.60585938 650.38460937 243.58984375 650.4921875 C240.890625 650.61328125 240.890625 650.61328125 237.890625 649.61328125 C237.560625 648.95328125 237.230625 648.29328125 236.890625 647.61328125 C233.920625 647.61328125 230.950625 647.61328125 227.890625 647.61328125 C227.890625 647.94328125 227.890625 648.27328125 227.890625 648.61328125 C226.240625 648.61328125 224.590625 648.61328125 222.890625 648.61328125 C222.560625 647.95328125 222.230625 647.29328125 221.890625 646.61328125 C219.41000033 645.95574445 219.41000033 645.95574445 216.37109375 645.53515625 C215.21319336 645.34703369 214.05529297 645.15891113 212.86230469 644.96508789 C211.61352539 644.7664917 210.36474609 644.56789551 209.078125 644.36328125 C183.48055571 640.03805159 159.27657555 631.87073152 136.890625 618.61328125 C135.98183594 618.07832031 135.07304688 617.54335938 134.13671875 616.9921875 C121.215673 609.08174575 105.89065032 598.98831606 96.890625 586.61328125 C96.98150391 587.22623047 97.07238281 587.83917969 97.16601562 588.47070312 C98.98364679 600.93312808 100.38460787 613.00757012 99.890625 625.61328125 C100.550625 625.94328125 101.210625 626.27328125 101.890625 626.61328125 C102.015625 634.23828125 102.015625 634.23828125 100.890625 637.61328125 C100.7356003 638.94558992 100.61996418 640.28273325 100.53125 641.62109375 C96.93699259 689.46666615 78.49127314 732.37059384 49.890625 770.61328125 C49.46330078 771.19078125 49.03597656 771.76828125 48.59570312 772.36328125 C39.35004492 784.82544769 29.19251354 796.46621968 18.43457031 807.64013672 C17.87092773 808.23197754 17.30728516 808.82381836 16.7265625 809.43359375 C16.22688965 809.95195801 15.7272168 810.47032227 15.21240234 811.00439453 C13.79225248 812.61031704 13.79225248 812.61031704 12.82666016 814.75341797 C11.59828238 817.19415399 10.32372143 817.43149155 7.890625 818.61328125 C7.08625 819.41765625 6.281875 820.22203125 5.453125 821.05078125 C0.75666423 825.74724202 -3.07117397 827.2343272 -9.6328125 827.66015625 C-18.08329225 827.50021026 -23.38744605 821.13514275 -29.109375 815.61328125 C-29.61984375 815.12859375 -30.1303125 814.64390625 -30.65625 814.14453125 C-32.109375 812.61328125 -32.109375 812.61328125 -33.91015625 810.33984375 C-36.55206224 807.06444343 -39.40731096 804.04416935 -42.296875 800.98828125 C-47.83994997 795.06570276 -53.09190408 788.99172981 -58.109375 782.61328125 C-58.87378906 781.65550781 -59.63820313 780.69773437 -60.42578125 779.7109375 C-66.16321698 772.40790936 -71.45764784 764.85251571 -76.64355469 757.1484375 C-81.1511557 750.18147638 -81.1511557 750.18147638 -86.796875 744.17578125 C-88.109375 742.61328125 -88.109375 742.61328125 -88.43359375 740.00390625 C-89.2855505 735.7293487 -91.10206931 732.56333951 -93.234375 728.80078125 C-96.54925573 722.76058358 -99.50985183 716.68300618 -102.109375 710.30078125 C-102.3995752 709.59010498 -102.68977539 708.87942871 -102.98876953 708.1472168 C-104.24912814 704.99327409 -105.30224962 701.90580294 -106.109375 698.61328125 C-107.04145616 695.55622773 -108.0470375 692.52375913 -109.046875 689.48828125 C-109.31177734 688.66457031 -109.57667969 687.84085938 -109.84960938 686.9921875 C-110.10935547 686.20457031 -110.36910156 685.41695312 -110.63671875 684.60546875 C-110.87124756 683.8872998 -111.10577637 683.16913086 -111.34741211 682.42919922 C-112.05968676 680.4106773 -112.05968676 680.4106773 -114.109375 678.61328125 C-113.81567673 677.2706606 -113.4814792 675.93631842 -113.109375 674.61328125 C-113.439375 673.95328125 -113.769375 673.29328125 -114.109375 672.61328125 C-114.31598701 670.96689262 -114.47394119 669.31423742 -114.60546875 667.66015625 C-114.92222288 663.85414768 -115.25712839 660.05340722 -115.64453125 656.25390625 C-117.09831327 641.61013704 -117.44890467 627.530251 -116.234375 612.86328125 C-116.11690918 611.44317749 -116.11690918 611.44317749 -115.99707031 609.99438477 C-115.40222157 603.4527579 -114.38442456 597.05580159 -113.109375 590.61328125 C-113.769375 590.28328125 -114.429375 589.95328125 -115.109375 589.61328125 C-118.34592126 592.1481986 -121.37982944 594.78378475 -124.359375 597.61328125 C-145.95565717 617.12374122 -172.38282048 630.33942699 -199.96337891 638.94091797 C-202.69105323 639.79552719 -205.40099945 640.69956303 -208.109375 641.61328125 C-211.03456097 642.58834324 -213.77066057 642.97528958 -216.82177734 643.33203125 C-219.18238738 643.6222578 -221.52853952 643.96832348 -223.87890625 644.33203125 C-224.70583984 644.45964844 -225.53277344 644.58726562 -226.38476562 644.71875 C-228.06473075 644.97999169 -229.74442398 645.24298843 -231.42382812 645.5078125 C-243.27579643 647.3283631 -255.07867448 647.85852759 -267.05273438 648.21875 C-268.16326172 648.25613281 -269.27378906 648.29351563 -270.41796875 648.33203125 C-271.41626709 648.36232422 -272.41456543 648.39261719 -273.44311523 648.42382812 C-275.79986876 648.59128905 -277.84932043 648.95019768 -280.109375 649.61328125 C-280.109375 648.95328125 -280.109375 648.29328125 -280.109375 647.61328125 C-280.9437207 647.53811279 -281.77806641 647.46294434 -282.63769531 647.38549805 C-286.54549229 647.02992615 -290.45264086 646.66781581 -294.359375 646.30078125 C-295.41298721 646.20198669 -295.41298721 646.20198669 -296.48788452 646.10119629 C-306.17742917 645.18412855 -315.79496845 644.08324659 -325.39355469 642.44018555 C-329.34765056 641.59662666 -329.34765056 641.59662666 -333.109375 642.61328125 C-333.109375 641.62328125 -333.109375 640.63328125 -333.109375 639.61328125 C-335.00429688 639.45085937 -335.00429688 639.45085937 -336.9375 639.28515625 C-342.40646889 638.67273452 -347.57216262 637.35667362 -352.859375 635.86328125 C-354.23802734 635.50363281 -354.23802734 635.50363281 -355.64453125 635.13671875 C-362.28499012 633.2723931 -365.78375541 630.85253711 -369.859375 625.17578125 C-372.61721016 619.52221917 -372.06158812 614.27550524 -371.046875 608.23828125 C-370.85085693 607.02543457 -370.85085693 607.02543457 -370.65087891 605.78808594 C-369.26199387 597.68702054 -367.26686756 589.74507731 -365.17944336 581.79931641 C-363.85281452 576.73739164 -362.70507462 571.81475602 -362.109375 566.61328125 C-361.449375 566.61328125 -360.789375 566.61328125 -360.109375 566.61328125 C-359.85414063 565.32421875 -359.59890625 564.03515625 -359.3359375 562.70703125 C-358.20105358 557.61893522 -356.46375762 552.92648715 -354.484375 548.11328125 C-354.12883545 547.2430835 -353.7732959 546.37288574 -353.40698242 545.47631836 C-352.32227494 542.84893707 -351.22042373 540.2296218 -350.109375 537.61328125 C-349.79726074 536.87480957 -349.48514648 536.13633789 -349.16357422 535.37548828 C-340.28258522 514.67561951 -327.4602516 496.36488632 -313.15234375 479.0859375 C-311.76993986 477.41277945 -310.41362017 475.71778178 -309.08203125 474.00390625 C-307.28863813 471.83052687 -305.5178878 470.09805534 -303.359375 468.30078125 C-300.50888064 465.87102407 -297.84013818 463.36594161 -295.234375 460.67578125 C-289.89754948 455.2654168 -284.01079451 450.40705767 -277.609375 446.30078125 C-274.89014969 444.69535604 -274.89014969 444.69535604 -273.109375 441.61328125 C-271.45725341 440.91134358 -269.78766478 440.2501216 -268.109375 439.61328125 C-266.15209549 438.43725717 -264.2162709 437.22517052 -262.296875 435.98828125 C-245.34876879 425.3375644 -225.85470031 416.2658048 -206.109375 412.61328125 C-208.00029236 411.76885244 -209.89735015 410.93816538 -211.796875 410.11328125 C-212.85261719 409.64921875 -213.90835938 409.18515625 -214.99609375 408.70703125 C-217.96565316 407.66377324 -220.00132563 407.38262824 -223.109375 407.61328125 C-223.109375 406.62328125 -223.109375 405.63328125 -223.109375 404.61328125 C-223.65609863 404.44747559 -224.20282227 404.28166992 -224.76611328 404.11083984 C-230.4740599 402.3048051 -235.70030401 400.04257906 -240.984375 397.23828125 C-241.79737061 396.80692871 -242.61036621 396.37557617 -243.44799805 395.93115234 C-260.35441176 386.74433225 -275.53031475 375.21575367 -289.109375 361.61328125 C-289.893125 361.01515625 -290.676875 360.41703125 -291.484375 359.80078125 C-296.14610497 355.91600627 -299.85948989 351.15845291 -303.67578125 346.4609375 C-304.11962158 345.91824219 -304.56346191 345.37554687 -305.02075195 344.81640625 C-305.90169142 343.73672118 -306.77671846 342.65218041 -307.64526367 341.5625 C-309.76832224 338.95936128 -310.85123393 337.69932827 -314.109375 336.61328125 C-314.109375 335.62328125 -314.109375 334.63328125 -314.109375 333.61328125 C-315.01880026 331.89749644 -315.01880026 331.89749644 -316.3046875 330.171875 C-316.77076416 329.51010254 -317.23684082 328.84833008 -317.71704102 328.16650391 C-318.46812134 327.11922119 -318.46812134 327.11922119 -319.234375 326.05078125 C-323.0530047 320.62917172 -326.6961414 315.19728074 -329.98828125 309.43359375 C-331.1046334 307.46384208 -331.1046334 307.46384208 -333.109375 305.61328125 C-334.14780065 303.29679326 -335.1515725 300.96425101 -336.109375 298.61328125 C-336.769375 298.94328125 -337.429375 299.27328125 -338.109375 299.61328125 C-338.17125 298.72640625 -338.233125 297.83953125 -338.296875 296.92578125 C-339.29617392 292.85171644 -341.03813788 291.37739466 -344.109375 288.61328125 C-345.109375 286.61328125 -345.109375 286.61328125 -344.57202148 284.69091797 C-343.89186901 281.63651294 -345.42241803 279.90072607 -346.84423828 277.25488281 C-349.70943298 271.27236513 -351.5258528 264.79644761 -353.546875 258.48828125 C-353.78960144 257.73704987 -354.03232788 256.98581848 -354.28240967 256.21182251 C-358.58452687 242.85769661 -362.069746 229.45778753 -364.6640625 215.6640625 C-365.03203809 213.56192708 -365.03203809 213.56192708 -366.109375 211.61328125 C-366.37498932 208.36956695 -366.34094225 205.11666194 -366.359375 201.86328125 C-366.38 200.96867188 -366.400625 200.0740625 -366.421875 199.15234375 C-366.45316393 193.84887073 -366.01812466 190.23666228 -363.109375 185.61328125 C-362.449375 185.61328125 -361.789375 185.61328125 -361.109375 185.61328125 C-361.109375 184.95328125 -361.109375 184.29328125 -361.109375 183.61328125 C-355.75646346 180.46081153 -350.44825225 179.53353859 -344.359375 178.55078125 C-342.8273645 178.29590942 -342.8273645 178.29590942 -341.2644043 178.03588867 C-332.23988504 176.56855017 -323.22178632 175.36383254 -314.109375 174.61328125 C-312.97314697 174.51853516 -312.97314697 174.51853516 -311.81396484 174.421875 C-289.88403513 172.70795823 -268.45609017 174.18819083 -246.78515625 177.7734375 C-242.48044154 178.46683799 -238.46214055 178.80632235 -234.109375 178.61328125 C-233.779375 179.27328125 -233.449375 179.93328125 -233.109375 180.61328125 C-231.21404158 181.07851188 -231.21404158 181.07851188 -229.046875 181.23828125 C-227.0978125 181.42390625 -227.0978125 181.42390625 -225.109375 181.61328125 C-225.109375 182.27328125 -225.109375 182.93328125 -225.109375 183.61328125 C-222.799375 183.61328125 -220.489375 183.61328125 -218.109375 183.61328125 C-218.109375 184.27328125 -218.109375 184.93328125 -218.109375 185.61328125 C-215.139375 185.94328125 -212.169375 186.27328125 -209.109375 186.61328125 C-209.109375 187.27328125 -209.109375 187.93328125 -209.109375 188.61328125 C-208.26375 188.73703125 -207.418125 188.86078125 -206.546875 188.98828125 C-202.95700702 189.64098452 -199.60112625 190.56575588 -196.109375 191.61328125 C-196.109375 192.27328125 -196.109375 192.93328125 -196.109375 193.61328125 C-192.809375 193.94328125 -189.509375 194.27328125 -186.109375 194.61328125 C-186.439375 195.27328125 -186.769375 195.93328125 -187.109375 196.61328125 C-185.789375 196.94328125 -184.469375 197.27328125 -183.109375 197.61328125 C-183.109375 198.27328125 -183.109375 198.93328125 -183.109375 199.61328125 C-182.42230469 199.79503906 -181.73523438 199.97679687 -181.02734375 200.1640625 C-180.12628906 200.41542969 -179.22523438 200.66679687 -178.296875 200.92578125 C-177.40355469 201.16941406 -176.51023437 201.41304687 -175.58984375 201.6640625 C-172.92341141 202.68444527 -172.06594386 203.6002729 -170.109375 205.61328125 C-167.72977445 207.12966515 -165.34042265 208.59965266 -162.921875 210.05078125 C-144.11702216 221.59431184 -127.42840816 235.78922502 -112.109375 251.61328125 C-112.22531006 250.86868652 -112.34124512 250.1240918 -112.46069336 249.35693359 C-116.83363971 221.09122243 -116.83363971 221.09122243 -117.109375 210.61328125 C-117.12983887 209.8975293 -117.15030273 209.18177734 -117.17138672 208.44433594 C-117.47817328 196.13737766 -116.67601509 184.10973182 -115.33984375 171.88085938 C-115.03480918 168.87962946 -114.8552743 165.87408638 -114.671875 162.86328125 C-114.32825774 158.70493 -113.50475724 155.20827124 -112.04296875 151.3125 C-111.04807787 148.43605818 -110.28136902 145.52612042 -109.51733398 142.58129883 C-107.23209659 133.82918628 -104.27428669 125.56265278 -100.70043945 117.25073242 C-98.29560315 111.65248113 -98.29560315 111.65248113 -98.109375 105.61328125 C-97.449375 105.61328125 -96.789375 105.61328125 -96.109375 105.61328125 C-95.12825525 103.51002455 -94.14954366 101.40564436 -93.171875 99.30078125 C-92.62660156 98.12902344 -92.08132813 96.95726562 -91.51953125 95.75 C-90.07452561 92.67635063 -90.07452561 92.67635063 -89.109375 89.61328125 C-88.5525 88.93265625 -87.995625 88.25203125 -87.421875 87.55078125 C-82.61367416 81.44306667 -78.96325917 74.50266147 -75.3828125 67.62109375 C-74.109375 65.61328125 -74.109375 65.61328125 -72.28125 63.79296875 C-69.47227431 60.97388883 -67.2728608 57.85926408 -64.984375 54.61328125 C-64.32115234 53.68902344 -64.32115234 53.68902344 -63.64453125 52.74609375 C-61.53572245 49.77719676 -59.70428273 46.89380235 -58.109375 43.61328125 C-56.9961587 42.46633112 -55.87643861 41.32488354 -54.72265625 40.21875 C-51.00745669 36.52154172 -47.59146103 32.52837279 -44.109375 28.61328125 C-43.49707031 27.92878906 -42.88476562 27.24429688 -42.25390625 26.5390625 C-39.04618822 22.92028679 -35.98291854 19.2201999 -32.984375 15.42578125 C-30.19895303 11.92395516 -27.40432236 8.65477112 -24.109375 5.61328125 C-23.56539063 5.09894531 -23.02140625 4.58460937 -22.4609375 4.0546875 C-16.07912111 -1.75583092 -7.95087617 -5.22696489 0 0 Z M-343.109375 284.61328125 C-342.109375 286.61328125 -342.109375 286.61328125 -342.109375 286.61328125 Z M-113.109375 585.61328125 C-112.109375 589.61328125 -112.109375 589.61328125 -112.109375 589.61328125 Z " fill="#151717" transform="translate(522.109375,77.38671875)"/>
<path d="M0 0 C9.43199406 7.58660392 17.16371959 16.89261847 24.67626953 26.33740234 C25.62423846 27.52804573 26.57619867 28.71551561 27.53076172 29.90087891 C54.54042374 63.50137721 75.07892166 99.83072492 85 142 C85.16975342 142.69754395 85.33950684 143.39508789 85.5144043 144.11376953 C95.11789217 185.60126851 85.78437594 231.78486106 69 270 C68.67870117 270.74813965 68.35740234 271.4962793 68.02636719 272.26708984 C61.38584944 287.60701953 52.65709984 301.74229177 44 316 C42.99891187 317.66601331 41.99854626 319.33246195 41 321 C36.17297269 320.14087771 31.67003985 318.60802643 27.03515625 317.03515625 C23.328438 315.94599993 19.5698749 315.46507438 15.74780273 314.93530273 C14.48483871 314.7590184 13.22187469 314.58273407 11.92063904 314.40110779 C10.95682816 314.26874222 9.99301727 314.13637665 9 314 C8.99780016 313.15516493 8.99780016 313.15516493 8.99555588 312.29326248 C8.95850448 298.58888875 8.89925925 284.88476576 8.81609726 271.18059158 C8.77655272 264.55332687 8.74439837 257.92619643 8.72900391 251.29882812 C8.71388346 244.90555103 8.67951962 238.51264289 8.63169098 232.11952972 C8.61682958 229.67787631 8.60895628 227.23617024 8.60811615 224.79447174 C8.60575913 221.37983143 8.57878002 217.96622132 8.54589844 214.55175781 C8.5509288 213.53755768 8.55595917 212.52335754 8.56114197 211.47842407 C8.52866731 206.07581163 8.52866731 206.07581163 6.1885376 201.33660889 C3.92053698 199.68298436 3.92053698 199.68298436 0.4375 200.0625 C-2.97111812 200.99212312 -3.94792066 201.29806229 -6 204 C-6.45676865 206.13488529 -6.45676865 206.13488529 -6.39872742 208.53678894 C-6.41753464 209.93131035 -6.41753464 209.93131035 -6.4367218 211.35400391 C-6.43456917 212.88069702 -6.43456917 212.88069702 -6.43237305 214.43823242 C-6.4425647 215.51156326 -6.45275635 216.5848941 -6.46325684 217.69075012 C-6.49350026 221.24570865 -6.50267028 224.80039823 -6.51171875 228.35546875 C-6.52855698 230.81741744 -6.54670605 233.27935748 -6.56611633 235.74128723 C-6.61371515 242.226769 -6.64346068 248.71221574 -6.66955566 255.19781494 C-6.69931131 261.81358765 -6.74585875 268.42923953 -6.79101562 275.04492188 C-6.8771612 288.02988234 -6.94502643 301.01487208 -7 314 C-8.00667725 314.12117188 -9.01335449 314.24234375 -10.05053711 314.3671875 C-11.39701054 314.53615671 -12.74344401 314.70544458 -14.08984375 314.875 C-14.75028687 314.95363281 -15.41072998 315.03226562 -16.09118652 315.11328125 C-22.39660804 315.91913543 -28.0734637 317.79156726 -34 320 C-35.99788701 320.67297247 -37.99736911 321.34127853 -40 322 C-44.70017447 314.01931246 -49.35940676 306.01545886 -54 298 C-54.78286377 296.65711914 -54.78286377 296.65711914 -55.58154297 295.28710938 C-66.62314494 276.26915259 -75.08820564 256.18592111 -81 235 C-81.19287598 234.33081543 -81.38575195 233.66163086 -81.58447266 232.97216797 C-93.64144025 190.43114978 -88.55074697 145.79451957 -73 105 C-72.56300781 103.82695312 -72.12601562 102.65390625 -71.67578125 101.4453125 C-60.32322541 73.01278526 -41.41589799 47.04490257 -21.55078125 23.98828125 C-19.1195118 21.14000999 -16.77419105 18.23847916 -14.4375 15.3125 C-9.98043428 9.8219118 -5.0938432 4.9024253 0 0 Z " fill="#FA8D6F" transform="translate(513,98)"/>
<path d="M0 0 C3.48667696 0.60691713 6.53889853 1.5449383 9.8125 2.875 C14.62578711 4.68300175 19.34545497 5.74487398 24.38671875 6.6328125 C25.12192749 6.76631104 25.85713623 6.89980957 26.61462402 7.03735352 C28.40897487 7.36253859 30.20438358 7.6818774 32 8 C32.00219984 8.86167896 32.00219984 8.86167896 32.00444412 9.74076557 C32.04147917 23.71183228 32.10070312 37.68265272 32.18390274 51.65352345 C32.22372979 58.40972612 32.25610349 65.1658117 32.27099609 71.92211914 C32.28538082 78.43856149 32.32044992 84.95469978 32.36830902 91.47098351 C32.38318174 93.96091248 32.39104436 96.45089322 32.39188385 98.94086647 C32.3942375 102.42036552 32.42118896 105.89884882 32.45410156 109.37817383 C32.4490712 110.41467072 32.44404083 111.4511676 32.43885803 112.51907349 C32.45277084 113.46558273 32.46668365 114.41209198 32.48101807 115.38728333 C32.48470524 116.21044446 32.48839241 117.03360559 32.49219131 117.88171101 C32.83829427 120.15623068 32.83829427 120.15623068 34.80978012 121.76485729 C37.9969801 123.56223246 40.41081028 123.39154797 44 123 C46.16008668 121.42122105 46.90318391 120.53301798 47.38476086 117.88171101 C47.38936982 117.05854987 47.39397879 116.23538874 47.39872742 115.38728333 C47.41753464 113.96751945 47.41753464 113.96751945 47.4367218 112.51907349 C47.43456917 110.96432816 47.43456917 110.96432816 47.43237305 109.37817383 C47.4425647 108.28533585 47.45275635 107.19249786 47.46325684 106.06654358 C47.49350241 102.44665477 47.50267063 98.82703007 47.51171875 95.20703125 C47.52855682 92.70024223 47.54670586 90.1934617 47.56611633 87.68669128 C47.60884903 81.7581826 47.63833792 75.82970131 47.66143972 69.90109223 C47.6911301 62.48930844 47.74133096 55.07768769 47.79101562 47.66601562 C47.87716319 34.44407483 47.94502757 21.22210527 48 8 C49.03151184 7.7995256 50.06302368 7.59905121 51.12579346 7.39250183 C52.49176542 7.12402097 53.85771047 6.85540311 55.22363281 6.58666992 C55.90201202 6.45520317 56.58039124 6.32373642 57.27932739 6.18828583 C61.98989463 5.25768296 66.28657572 4.05700738 70.75 2.3125 C76.72566372 0 76.72566372 0 80 0 C81.2199707 1.36328125 81.2199707 1.36328125 82.42578125 3.3125 C82.8856543 4.0461377 83.34552734 4.77977539 83.81933594 5.53564453 C84.31208008 6.34888184 84.80482422 7.16211914 85.3125 8 C85.83231445 8.84288574 86.35212891 9.68577148 86.88769531 10.55419922 C88.60750863 13.36023726 90.30582512 16.17841505 92 19 C92.59409668 19.98387695 93.18819336 20.96775391 93.80029297 21.98144531 C114.47075283 56.33797795 128.7177589 91.96999544 128.5 132.5625 C128.49856995 133.43063324 128.49713989 134.29876648 128.4956665 135.19320679 C128.43586354 149.93463677 127.0022141 163.75838954 123 178 C122.77538086 178.83644043 122.55076172 179.67288086 122.31933594 180.53466797 C110.12449022 225.27572855 82.8416402 262.87127679 52.06640625 296.70703125 C50.61874781 298.31341216 49.19056771 299.93746201 47.77734375 301.57421875 C47.06707031 302.39535156 46.35679687 303.21648437 45.625 304.0625 C44.99851562 304.79597656 44.37203125 305.52945312 43.7265625 306.28515625 C42 308 42 308 39 309 C25.56271868 295.74457663 25.56271868 295.74457663 20.91015625 290.24609375 C19.3583447 288.42136647 17.78192494 286.63119505 16.18359375 284.84765625 C-21.16179834 242.92103013 -48.82577095 191.2191919 -48.5 134.0625 C-48.49823761 133.22471008 -48.49647522 132.38692017 -48.49465942 131.52374268 C-48.26428907 81.96890997 -26.92904057 40.39356086 0 0 Z " fill="#4CC0AC" transform="translate(474,575)"/>
<path d="M0 0 C8.66832081 -0.04682049 17.33659655 -0.08211699 26.00501728 -0.10362434 C30.03228101 -0.11395883 34.05945679 -0.12792298 38.08666992 -0.15087891 C72.33770509 -0.34081773 72.33770509 -0.34081773 88 2 C89.49019653 2.20326904 89.49019653 2.20326904 91.01049805 2.41064453 C126.47967286 7.58302396 158.19054909 23.56126839 185 47 C185.64984863 47.56477051 186.29969727 48.12954102 186.96923828 48.71142578 C196.09332617 56.71505128 203.89727661 65.16589719 211 75 C212.15048828 76.57007813 212.15048828 76.57007813 213.32421875 78.171875 C233.79751612 106.89880534 246.63133064 139.7082279 254.4375 174 C254.60145264 174.71099854 254.76540527 175.42199707 254.93432617 176.15454102 C255.87863823 180.54989401 256.14525367 184.53780723 256 189 C232.61947611 194.77139818 208.63290603 200.13487583 184.43359375 200.16796875 C183.55582779 200.17129715 182.67806183 200.17462555 181.7736969 200.17805481 C179.92750567 200.18308051 178.08130549 200.1854645 176.23510742 200.18530273 C173.46842743 200.18747571 170.70215594 200.20564144 167.93554688 200.22460938 C153.39177074 200.27137053 139.26501225 199.15334002 125 196.1875 C124.16807129 196.01573242 123.33614258 195.84396484 122.47900391 195.66699219 C107.49522892 192.47798392 93.78792027 187.6772883 80 181 C79.34789551 180.68691895 78.69579102 180.37383789 78.02392578 180.05126953 C54.10428501 168.40885742 32.11792889 150.29211438 15 130 C14.52626953 129.43861328 14.05253906 128.87722656 13.56445312 128.29882812 C1.02821037 113.35967376 -10.25274171 97.60939434 -20.65185547 81.11865234 C-22.06068142 78.9046372 -23.49862622 76.71154776 -24.94140625 74.51953125 C-25.87802665 73.07579483 -26.81423935 71.63179382 -27.75 70.1875 C-28.19303467 69.52347168 -28.63606934 68.85944336 -29.0925293 68.17529297 C-32.07222543 63.51819644 -32.07222543 63.51819644 -31.70654297 60.89453125 C-30.77294987 58.39118557 -29.4702667 57.45069114 -27.375 55.8125 C-22.8456775 52.0516907 -19.44532961 47.74809486 -16 43 C-12.35333297 43.68189269 -9.56795015 45.23201561 -6.36328125 47.0703125 C-5.24147461 47.71178223 -4.11966797 48.35325195 -2.96386719 49.01416016 C-1.74658545 49.71749774 -0.52946722 50.42111836 0.6875 51.125 C1.95011922 51.85088108 3.2128156 52.57662795 4.47558594 53.30224609 C13.66436341 58.59511126 22.77293135 64.01702059 31.85131836 69.49707031 C39.74492046 74.26033246 47.6839166 78.93911926 55.66064453 83.56176758 C60.70735449 86.48806342 65.74066912 89.4338277 70.74719238 92.42828369 C73.38931103 94.00800971 76.03547733 95.58089203 78.6817627 97.15362549 C79.96559835 97.91925736 81.24746403 98.68820336 82.52722168 99.46063232 C84.31783977 100.54097859 86.11509121 101.60941976 87.9140625 102.67578125 C88.9448291 103.29364502 89.9755957 103.91150879 91.03759766 104.5480957 C95.16700253 106.57196012 98.3896479 107.53678403 102.8125 106.0625 C105.54697166 103.48428387 105.8648997 101.74269699 106.4453125 98.1328125 C105.71946973 94.65640765 103.66804072 93.25676172 101 91 C98.55687593 89.42890333 96.01186693 88.09235893 93.4375 86.75 C85.18461064 82.31061048 77.17404269 77.52039837 69.1875 72.625 C61.02501398 67.62825347 52.83971914 62.6978666 44.5 58 C34.85060717 52.56147695 25.38790648 46.82970168 15.94140625 41.04882812 C8.67776906 36.60760885 1.37222523 32.2584488 -6 28 C-5.12960972 22.13737124 -3.76677492 16.3963617 -2.4375 10.625 C-2.20353516 9.60277344 -1.96957031 8.58054687 -1.72851562 7.52734375 C-1.1539152 5.01786434 -0.57769775 2.50876786 0 0 Z " fill="#8EBC69" transform="translate(601,504)"/>
<path d="M0 0 C3.08566495 0.01087711 6.17128577 0.01046659 9.25696659 0.00986195 C12.25368986 0.01013479 15.25038504 0.01563207 18.24709892 0.02286339 C19.66673001 0.02601824 21.08636422 0.02800991 22.50599861 0.0287571 C29.4985551 0.03648411 36.32663644 0.09414699 43.24035645 1.19561768 C43.45969849 2.16386475 43.45969849 2.16386475 43.68347168 3.15167236 C44.34781063 6.08309102 45.01282639 9.01435573 45.67785645 11.94561768 C46.02300293 13.46928955 46.02300293 13.46928955 46.37512207 15.02374268 C46.59748535 16.00343018 46.81984863 16.98311768 47.0489502 17.99249268 C47.25318604 18.8932251 47.45742188 19.79395752 47.66784668 20.72198486 C48.16880306 22.88645825 48.69326651 25.04241229 49.24035645 27.19561768 C38.9664662 33.37155762 28.67438152 39.51601963 18.36535645 45.63311768 C17.66292816 46.05002869 16.96049988 46.4669397 16.23678589 46.89648438 C4.26185236 54.00349661 -7.72556036 61.0880223 -19.75024414 68.11061096 C-37.16073877 78.2673468 -37.16073877 78.2673468 -54.44714355 88.63311768 C-55.17667236 89.07518555 -55.90620117 89.51725342 -56.65783691 89.97271729 C-59.25785609 91.56656575 -61.5949852 93.03095932 -63.75964355 95.19561768 C-64.09935575 98.20449712 -64.30929473 100.29277241 -63.75964355 103.19561768 C-61.84782087 105.94174762 -61.84782087 105.94174762 -58.75964355 107.19561768 C-53.25154403 106.90291674 -49.2271695 105.16287922 -44.57214355 102.38311768 C-43.88273682 101.9835083 -43.19333008 101.58389893 -42.48303223 101.17218018 C-40.23302223 99.86111521 -37.99505773 98.53140226 -35.75964355 97.19561768 C-35.02616699 96.75814209 -34.29269043 96.3206665 -33.5369873 95.86993408 C-30.38091938 93.98384045 -27.22843764 92.09197994 -24.08117676 90.19122314 C-17.29123005 86.09404922 -10.45392768 82.08128246 -3.60452271 78.08477783 C7.02603525 71.88084942 17.60214069 65.59653206 28.11535645 59.19561768 C28.70266541 58.83820496 29.28997437 58.48079224 29.89508057 58.11254883 C34.55916747 55.2735182 39.22091779 52.43067407 43.87902832 49.58184814 C46.03889897 48.26187789 48.20166314 46.94680794 50.36535645 45.63311768 C51.48168457 44.95120361 52.5980127 44.26928955 53.74816895 43.56671143 C56.24035645 42.19561768 56.24035645 42.19561768 58.24035645 42.19561768 C59.50696407 43.83982898 60.70341191 45.53834717 61.86535645 47.25811768 C65.47342143 52.37284715 69.31601176 56.35829588 74.24035645 60.19561768 C72.71025788 66.09606025 69.58239004 70.62889098 66.24035645 75.63311768 C65.65584717 76.51838135 65.07133789 77.40364502 64.46911621 78.31573486 C63.28392548 80.10881949 62.09588385 81.90002319 60.90490723 83.68927002 C59.45135143 85.87791827 58.01184955 88.07464391 56.5802002 90.27764893 C44.96530815 108.07161694 31.87390721 124.78455453 17.24035645 140.19561768 C16.73488281 140.72977295 16.22940918 141.26392822 15.70861816 141.81427002 C7.80498728 150.10729088 -0.53667322 157.40545725 -9.75964355 164.19561768 C-10.7960498 164.96518799 -11.83245605 165.7347583 -12.90026855 166.52764893 C-37.34375419 184.06185785 -65.10976011 194.64296307 -94.75964355 199.19561768 C-95.41770996 199.30003174 -96.07577637 199.4044458 -96.75378418 199.51202393 C-135.80377244 205.47327817 -175.84014099 198.64908698 -213.75964355 189.19561768 C-213.24672505 181.23579889 -211.6550304 173.72833634 -209.69714355 166.00811768 C-209.38696289 164.78286377 -209.07678223 163.55760986 -208.75720215 162.29522705 C-195.88920691 112.72485699 -170.46321017 66.95126072 -128.75964355 36.19561768 C-127.69874512 35.41315674 -126.63784668 34.6306958 -125.5447998 33.82452393 C-105.27698423 19.36898674 -82.55545826 9.18737594 -58.19714355 3.94561768 C-57.15650757 3.71914551 -57.15650757 3.71914551 -56.09484863 3.48809814 C-53.65711889 2.99739889 -51.21498712 2.58924557 -48.75964355 2.19561768 C-47.71123291 2.01539063 -46.66282227 1.83516357 -45.5826416 1.6494751 C-30.49425115 -0.54967801 -15.2100353 -0.06766679 0 0 Z " fill="#9870DE" transform="translate(384.7596435546875,503.80438232421875)"/>
<path d="M0 0 C-5.24140156 53.90367709 -29.7413655 105.98989123 -67 145 C-67.88429688 145.93714844 -68.76859375 146.87429688 -69.6796875 147.83984375 C-76.26896331 154.64876209 -83.31414728 160.50420208 -91 166 C-91.57202148 166.4110498 -92.14404297 166.82209961 -92.73339844 167.24560547 C-135.53819012 197.67955092 -190.0642516 208.86574292 -241.875 209.125 C-243.06416016 209.13213013 -243.06416016 209.13213013 -244.27734375 209.1394043 C-249.87726213 209.12273787 -249.87726213 209.12273787 -251 208 C-251.30176981 206.2132837 -251.56561289 204.42012309 -251.8125 202.625 C-252.78921022 196.4068601 -254.64059324 190.81834288 -257 185 C-240.66062789 174.44471231 -224.19919917 164.10145905 -207.62060547 153.92578125 C-200.42910349 149.5073764 -193.26935093 145.04371572 -186.14306641 140.52099609 C-178.57529532 135.71965672 -170.9694822 130.97973368 -163.35693359 126.24975586 C-153.69136212 120.76717458 -153.69136212 120.76717458 -145 114 C-144.76179079 111.96729438 -144.76179079 111.96729438 -144.75 109.625 C-144.71132813 108.43777344 -144.71132813 108.43777344 -144.671875 107.2265625 C-144.86480742 104.98699432 -144.86480742 104.98699432 -146.015625 103.2109375 C-149.33771983 101.18367491 -152.31587084 101.20497959 -156 102 C-159.90595811 103.82920939 -163.41768452 106.17106475 -167 108.5625 C-169.13899623 109.94581779 -171.27832881 111.32861559 -173.41796875 112.7109375 C-174.50770996 113.4234668 -175.59745117 114.13599609 -176.72021484 114.87011719 C-181.87216674 118.21577956 -187.09383366 121.44732514 -192.3125 124.6875 C-200.14913076 129.57972099 -207.96890418 134.49786332 -215.77416992 139.43994141 C-221.17276122 142.85503929 -226.58845935 146.24193924 -232.00976562 149.62084961 C-242.7423451 156.31020734 -253.41366296 163.08148354 -264 170 C-266.44696174 167.55735389 -268.89007421 165.11159414 -271.31640625 162.6484375 C-272.05761719 161.89820313 -272.79882812 161.14796875 -273.5625 160.375 C-274.30628906 159.61960937 -275.05007813 158.86421875 -275.81640625 158.0859375 C-277.78651125 156.20394095 -279.78340502 154.57825584 -282 153 C-279.71592176 146.85849128 -276.24309396 141.47101604 -272.875 135.875 C-272.235625 134.79734375 -271.59625 133.7196875 -270.9375 132.609375 C-266.6411155 125.44873417 -261.99392294 118.68813125 -257 112 C-255.85685794 110.42239373 -254.71612858 108.84303566 -253.578125 107.26171875 C-246.45583062 97.44604008 -239.04758637 88.07007492 -231 79 C-229.74934133 77.56307302 -228.49923185 76.12566759 -227.25 74.6875 C-226.71761719 74.08421875 -226.18523438 73.4809375 -225.63671875 72.859375 C-224.44262212 71.50283563 -223.25914519 70.13692678 -222.08203125 68.765625 C-218.34774177 64.46071876 -214.53347313 60.54334113 -210.1796875 56.8671875 C-207.65842572 54.70739695 -205.24296705 52.44889108 -202.8125 50.1875 C-196.81470261 44.73420692 -190.54674435 39.76520214 -184 35 C-183.45988281 34.60345215 -182.91976562 34.2069043 -182.36328125 33.79833984 C-158.13544456 16.224526 -130.27109772 4.7429226 -101 -1 C-100.20916016 -1.16371094 -99.41832031 -1.32742188 -98.60351562 -1.49609375 C-67.10602738 -7.78001144 -31.47881726 -5.20952258 0 0 Z " fill="#FACE4A" transform="translate(851,277)"/>
<path d="M0 0 C0.7847168 0.20931152 1.56943359 0.41862305 2.37792969 0.63427734 C24.59617723 6.71962509 46.56639742 18.32639902 65 32 C66.33611328 32.98226562 66.33611328 32.98226562 67.69921875 33.984375 C69.8395999 35.61300708 71.91653018 37.29938215 74 39 C74.80171631 39.63607178 75.60343262 40.27214355 76.42944336 40.92749023 C83.23270294 46.3772152 89.4914064 52.18680468 95.625 58.375 C96.5015625 59.24382812 97.378125 60.11265625 98.28125 61.0078125 C104.28278045 67.02715165 109.70907336 73.35312688 115 80 C115.97756347 81.18469499 116.95760061 82.36735856 117.94140625 83.546875 C130.80436474 99.17014572 141.96350767 115.99744495 152.5 133.25 C152.87933685 133.86749115 153.25867371 134.4849823 153.64950562 135.1211853 C154.72233201 136.87292315 155.78493329 138.63039193 156.84375 140.390625 C157.45412109 141.40157227 158.06449219 142.41251953 158.69335938 143.45410156 C160 146 160 146 160 149 C158.49609375 150.54296875 158.49609375 150.54296875 156.4375 152.1875 C152.14890118 155.76515463 148.56378759 159.71231805 145 164 C141.66813862 163.35047261 139.23713883 162.10155401 136.3515625 160.33203125 C135.44043701 159.77596191 134.52931152 159.21989258 133.59057617 158.64697266 C132.61193604 158.04159668 131.6332959 157.4362207 130.625 156.8125 C129.60059814 156.1839209 128.57619629 155.5553418 127.52075195 154.90771484 C119.7886029 150.14700415 112.12354109 145.28458185 104.47607422 140.3894043 C94.19218531 133.81808112 83.78592607 127.4479928 73.38037109 121.07177734 C68.73748793 118.22622581 64.09697342 115.37683545 59.45800781 112.52490234 C57.26911161 111.17926943 55.07969747 109.8344785 52.88964844 108.49072266 C51.88579102 107.87374512 50.88193359 107.25676758 49.84765625 106.62109375 C48.87844238 106.02643311 47.90922852 105.43177246 46.91064453 104.8190918 C44.90645055 103.56651259 42.91853249 102.28763491 40.94482422 100.98754883 C39.97174316 100.34712646 38.99866211 99.7067041 37.99609375 99.046875 C36.6975647 98.17627441 36.6975647 98.17627441 35.37280273 97.28808594 C32.95199056 95.97393787 31.71158473 95.56538253 29 95.8125 C25.63742626 97.14351877 24.47355428 97.70617279 23 101 C22.24988633 104.45728358 22.24988633 104.45728358 23 108 C28.22881095 113.16624399 34.74283244 116.65909657 41 120.4375 C43.34940716 121.86692843 45.69634438 123.30038381 48.04296875 124.734375 C48.92664375 125.27368904 48.92664375 125.27368904 49.82817078 125.82389832 C55.36689896 129.21036392 60.84588382 132.68623065 66.3125 136.1875 C73.40296961 140.72409284 80.52316182 145.20592484 87.6875 149.625 C96.68855252 155.17711366 105.64086667 160.8023381 114.57373047 166.46337891 C118.94217713 169.23003248 123.31516518 171.989497 127.6875 174.75 C129.2955914 175.76559574 130.90366611 176.78121789 132.51171875 177.796875 C133.18678467 178.22323242 133.86185059 178.64958984 134.55737305 179.08886719 C135.03343994 179.38954102 135.50950684 179.69021484 136 180 C135.65066406 181.22976563 135.30132812 182.45953125 134.94140625 183.7265625 C134.48160443 185.35932815 134.02197829 186.99214328 133.5625 188.625 C133.33240234 189.43324219 133.10230469 190.24148438 132.86523438 191.07421875 C132.64287109 191.86699219 132.42050781 192.65976562 132.19140625 193.4765625 C131.98717041 194.19924316 131.78293457 194.92192383 131.57250977 195.66650391 C130.89570327 198.42510371 130.439313 201.19474831 130 204 C118.93115906 204.1836644 108.0275683 203.66927163 97 202.75 C95.78627716 202.6501329 95.78627716 202.6501329 94.54803467 202.54824829 C43.92194041 198.31912864 -6.7200858 183.1935694 -44.70703125 148.10546875 C-46.74089454 146.23791796 -48.82147023 144.4601578 -50.9375 142.6875 C-79.74936118 117.46987502 -99.59471042 79.98171502 -111 44 C-111.39614502 42.75959961 -111.39614502 42.75959961 -111.80029297 41.49414062 C-122 9.07206633 -122 9.07206633 -122 -5 C-118.91772323 -5.48612169 -115.83401275 -5.96252669 -112.75 -6.4375 C-111.89664063 -6.57220703 -111.04328125 -6.70691406 -110.1640625 -6.84570312 C-73.45929678 -12.46098445 -35.69011576 -9.75579764 0 0 Z " fill="#FCBB40" transform="translate(298,282)"/>
<path d="M0 0 C3.17413298 2.68037896 6.31927392 5.36224334 9.3515625 8.203125 C17.10451096 15.46419456 25.42967034 21.74161623 34 28 C33.01 28.33 32.02 28.66 31 29 C28.7578125 27.515625 28.7578125 27.515625 26.125 25.25 C25.15304687 24.42242188 24.18109375 23.59484375 23.1796875 22.7421875 C22.66374023 22.29584961 22.14779297 21.84951172 21.61621094 21.38964844 C19.96933381 19.97363263 18.30439718 18.58204453 16.6328125 17.1953125 C10.83920925 12.37689495 5.09513099 7.56909667 0 2 C0 1.34 0 0.68 0 0 Z " fill="#090C09" transform="translate(623,642)"/>
<path d="M0 0 C4.89628208 4.35932922 8.00563228 9.47814438 11.375 15.0625 C11.94500732 15.99537842 12.51501465 16.92825684 13.10229492 17.8894043 C17.15507984 24.54206719 21.1455433 31.23017241 25 38 C23.515 38.495 23.515 38.495 22 39 C21.64679688 38.0821875 21.29359375 37.164375 20.9296875 36.21875 C18.54954037 30.67158413 15.28355611 25.62854952 12.125 20.5 C11.51269531 19.49324219 10.90039062 18.48648437 10.26953125 17.44921875 C7.6507652 13.17059242 5.02523348 8.9507143 2.0546875 4.90625 C0 2 0 2 0 0 Z " fill="#F2E056" transform="translate(434,392)"/>
<path d="M0 0 C8.58 0 17.16 0 26 0 C26 0.33 26 0.66 26 1 C22.37 1.33 18.74 1.66 15 2 C15 2.33 15 2.66 15 3 C13.2300132 3.19532961 11.45895721 3.38098882 9.6875 3.5625 C8.70136719 3.66691406 7.71523438 3.77132812 6.69921875 3.87890625 C4 4 4 4 1 3 C0.67 2.01 0.34 1.02 0 0 Z " fill="#1C211F" transform="translate(759,724)"/>
<path d="M0 0 C2.97 0 5.94 0 9 0 C8.3622098 7.52592433 6.80110167 14.67098882 5 22 C3.68947233 17.69577494 4.54214448 14.0629466 5.4375 9.75 C5.65889648 8.63238281 5.65889648 8.63238281 5.88476562 7.4921875 C6.2488694 5.65992335 6.62341409 3.82973947 7 2 C4.69 1.67 2.38 1.34 0 1 C0 0.67 0 0.34 0 0 Z " fill="#F5EE62" transform="translate(842,277)"/>
<path d="M0 0 C-0.33 0.99 -0.66 1.98 -1 3 C-9.39004715 3.13605482 -17.64380043 2.75475351 -26 2 C-26 1.67 -26 1.34 -26 1 C-22.04169483 0.83265991 -18.08335144 0.66624177 -14.125 0.5 C-12.43310547 0.42845703 -12.43310547 0.42845703 -10.70703125 0.35546875 C-9.63066406 0.31035156 -8.55429687 0.26523437 -7.4453125 0.21875 C-5.95281982 0.1559082 -5.95281982 0.1559082 -4.43017578 0.09179688 C-2.95418617 0.0360432 -1.47704224 0 0 0 Z " fill="#1B1E1F" transform="translate(274,725)"/>
<path d="M0 0 C0.33 0.66 0.66 1.32 1 2 C1.66 2 2.32 2 3 2 C2.979375 2.99 2.95875 3.98 2.9375 5 C2.92918572 9.06568074 3.43531533 12.97662176 4 17 C0.79906063 13.79906063 0.14039342 9.33842782 -0.125 4.91796875 C-0.125 3.2781164 -0.06826795 1.63843072 0 0 Z " fill="#0A0A0F" transform="translate(429,508)"/>
<path d="M0 0 C0.99 0.33 1.98 0.66 3 1 C-0.3 4.3 -3.6 7.6 -7 11 C-7.66 10.67 -8.32 10.34 -9 10 C-6.03 6.7 -3.06 3.4 0 0 Z " fill="#F6E356" transform="translate(621,355)"/>
<path d="M0 0 C3.47775179 1.51553404 5.9557984 3.5773456 8.75 6.125 C9.94882812 7.21167969 9.94882812 7.21167969 11.171875 8.3203125 C11.77515625 8.87460937 12.3784375 9.42890625 13 10 C12.34 10.66 11.68 11.32 11 12 C9.16364422 10.19047409 7.33083792 8.37759362 5.5 6.5625 C4.97535156 6.04623047 4.45070313 5.52996094 3.91015625 4.99804688 C2.58775448 3.68423213 1.29164432 2.34406495 0 1 C0 0.67 0 0.34 0 0 Z " fill="#251A10" transform="translate(383,330)"/>
<path d="M0 0 C0.33 0.99 0.66 1.98 1 3 C-2 5 -2 5 -4 5 C-4.99 6.485 -4.99 6.485 -6 8 C-6.99 7.67 -7.98 7.34 -9 7 C-6.19195732 4.03595495 -3.81684226 1.55500981 0 0 Z " fill="#B280E7" transform="translate(271,530)"/>
<path d="M0 0 C0.66 0.33 1.32 0.66 2 1 C1.4375 2.875 1.4375 2.875 0 5 C-3.625 6.25 -3.625 6.25 -7 7 C-4.66666667 4.66666667 -2.33333333 2.33333333 0 0 Z " fill="#0B0B0D" transform="translate(769,435)"/>
<path d="M0 0 C1.60031344 3.20062687 0.03173691 5.72271806 -1 9 C-1.66 9 -2.32 9 -3 9 C-3.33 9.66 -3.66 10.32 -4 11 C-3.48964169 6.6109185 -2.47785723 3.66291938 0 0 Z " fill="#BA86EC" transform="translate(192,622)"/>
<path d="M0 0 C1.45823212 -0.0270043 2.91660675 -0.04639787 4.375 -0.0625 C5.18710937 -0.07410156 5.99921875 -0.08570313 6.8359375 -0.09765625 C9 0 9 0 11 1 C11 2.65 11 4.3 11 6 C10.01 5.67 9.02 5.34 8 5 C8 3.68 8 2.36 8 1 C5.36 1 2.72 1 0 1 C0 0.67 0 0.34 0 0 Z " fill="#1C192D" transform="translate(420,504)"/>
<path d="M0 0 C0.66 0.33 1.32 0.66 2 1 C1.67 3.64 1.34 6.28 1 9 C0.01 9 -0.98 9 -2 9 C-1.125 1.125 -1.125 1.125 0 0 Z " fill="#162422" transform="translate(428,667)"/>
<path d="M0 0 C3.27286682 2.7819368 4.96427697 6.27954067 7 10 C6.01 10.33 5.02 10.66 4 11 C0.71428571 3.57142857 0.71428571 3.57142857 0 0 Z " fill="#ECD853" transform="translate(452,420)"/>
<path d="M0 0 C0 3.10551666 -0.5393715 4.35261084 -2 7 C-2.66 7 -3.32 7 -4 7 C-4.66 8.32 -5.32 9.64 -6 11 C-6 7.39426104 -5.18292538 6.58663434 -3 3.8125 C-2.443125 3.09707031 -1.88625 2.38164062 -1.3125 1.64453125 C-0.879375 1.10183594 -0.44625 0.55914062 0 0 Z " fill="#F8B491" transform="translate(477,140)"/>
<path d="M0 0 C4.75 0.75 4.75 0.75 7 3 C5.35 2.67 3.7 2.34 2 2 C1.67 2.99 1.34 3.98 1 5 C0.01 5 -0.98 5 -2 5 C-1.34 3.35 -0.68 1.7 0 0 Z " fill="#5DE0CF" transform="translate(474,575)"/>
<path d="M0 0 C0.66 0.33 1.32 0.66 2 1 C2 1.99 2 2.98 2 4 C-0.31 5.32 -2.62 6.64 -5 8 C-3.62845496 5.04590299 -2.01136276 2.55991624 0 0 Z " fill="#AEDA81" transform="translate(585,547)"/>
<path d="M0 0 C2.875 -0.1875 2.875 -0.1875 6 0 C6.66 0.99 7.32 1.98 8 3 C5.03 3 2.06 3 -1 3 C-0.67 2.01 -0.34 1.02 0 0 Z " fill="#E3AD3D" transform="translate(196,274)"/>
<path d="M0 0 C0.83583327 2.37607949 1.1842383 3.54449627 0.22265625 5.921875 C-0.8515625 7.61458333 -1.92578125 9.30729167 -3 11 C-4 8 -4 8 -3.22265625 5.95703125 C-2.83980469 5.24933594 -2.45695312 4.54164063 -2.0625 3.8125 C-1.68222656 3.09707031 -1.30195313 2.38164062 -0.91015625 1.64453125 C-0.60980469 1.10183594 -0.30945313 0.55914062 0 0 Z " fill="#EFAE8E" transform="translate(447,188)"/>
<path d="M0 0 C2.97 0 5.94 0 9 0 C9 1.32 9 2.64 9 4 C8.34 4 7.68 4 7 4 C7 3.34 7 2.68 7 2 C4.69 1.67 2.38 1.34 0 1 C0 0.67 0 0.34 0 0 Z " fill="#F1E65C" transform="translate(842,277)"/>
<path d="M0 0 C2.00720923 0.28674418 4.0085944 0.61866701 6 1 C5.01 1.66 4.02 2.32 3 3 C1.68 2.34 0.36 1.68 -1 1 C-0.67 0.67 -0.34 0.34 0 0 Z " fill="#1A1E1F" transform="translate(218,723)"/>
<path d="M0 0 C2.31 0 4.62 0 7 0 C7 0.33 7 0.66 7 1 C4.69 1 2.38 1 0 1 C0 0.67 0 0.34 0 0 Z " fill="#1B211F" transform="translate(775,726)"/>
<path d="M0 0 C1.32 0 2.64 0 4 0 C4 0.66 4 1.32 4 2 C2.68 1.67 1.36 1.34 0 1 C0 0.67 0 0.34 0 0 Z " fill="#1C2120" transform="translate(787,725)"/>
<path d="M0 0 C1.98 0 3.96 0 6 0 C5.34 0.66 4.68 1.32 4 2 C2.68 1.34 1.36 0.68 0 0 Z " fill="#1B1F20" transform="translate(231,725)"/>
<path d="M0 0 C1.98 0.99 1.98 0.99 4 2 C3.01 2.33 2.02 2.66 1 3 C0.67 2.01 0.34 1.02 0 0 Z " fill="#1B2220" transform="translate(697,714)"/>
<path d="M0 0 C0.33 0 0.66 0 1 0 C1 1.65 1 3.3 1 5 C0.01 5.495 0.01 5.495 -1 6 C-0.67 4.02 -0.34 2.04 0 0 Z " fill="#212021" transform="translate(403,276)"/>
<path d="M0 0 C0.33 0 0.66 0 1 0 C1 2.31 1 4.62 1 7 C0.67 7 0.34 7 0 7 C0 4.69 0 2.38 0 0 Z " fill="#1F1E20" transform="translate(154,274)"/>
<path d="M0 0 C1.32 0 2.64 0 4 0 C3.67 0.66 3.34 1.32 3 2 C2.01 2 1.02 2 0 2 C0 1.34 0 0.68 0 0 Z " fill="#1C2120" transform="translate(793,725)"/>
<path d="M0 0 C1.98 0.99 1.98 0.99 4 2 C2.68 2 1.36 2 0 2 C0 1.34 0 0.68 0 0 Z " fill="#1D2120" transform="translate(706,717)"/>
<path d="M0 0 C1.98 0 3.96 0 6 0 C6 0.33 6 0.66 6 1 C4.02 1 2.04 1 0 1 C0 0.67 0 0.34 0 0 Z " fill="#1D1E1F" transform="translate(166,256)"/>
<path d="M0 0 C0.99 0.33 1.98 0.66 3 1 C2.01 1.33 1.02 1.66 0 2 C0 1.34 0 0.68 0 0 Z " fill="#1A2020" transform="translate(482,883)"/>
<path d="M0 0 C1.32 0.33 2.64 0.66 4 1 C3.01 1.33 2.02 1.66 1 2 C0.67 1.34 0.34 0.68 0 0 Z " fill="#1B2120" transform="translate(751,725)"/>
<path d="M0 0 C0.66 0 1.32 0 2 0 C2 0.66 2 1.32 2 2 C1.01 1.67 0.02 1.34 -1 1 C-0.67 0.67 -0.34 0.34 0 0 Z " fill="#1B211F" transform="translate(802,724)"/>
<path d="M0 0 C1.98 0.99 1.98 0.99 4 2 C2.68 1.67 1.36 1.34 0 1 C0 0.67 0 0.34 0 0 Z " fill="#222320" transform="translate(362,288)"/>
<path d="M0 0 C1.98 0.99 1.98 0.99 4 2 C2.68 2 1.36 2 0 2 C0 1.34 0 0.68 0 0 Z " fill="#202122" transform="translate(818,250)"/>
<path d="M0 0 C1.98 0.99 1.98 0.99 4 2 C2.68 2 1.36 2 0 2 C0 1.34 0 0.68 0 0 Z " fill="#201F20" transform="translate(780,249)"/>
<path d="M0 0 C0.99 0.33 1.98 0.66 3 1 C2.01 1 1.02 1 0 1 C0 0.67 0 0.34 0 0 Z " fill="#19201F" transform="translate(484,886)"/>
<path d="M0 0 C1 4 1 4 1 4 Z " fill="#192122" transform="translate(607,787)"/>
<path d="M0 0 C0.99 0.495 0.99 0.495 2 1 C1.67 1.66 1.34 2.32 1 3 C0.67 2.01 0.34 1.02 0 0 Z " fill="#1B2021" transform="translate(409,759)"/>
<path d="M0 0 C1 4 1 4 1 4 Z " fill="#1B2322" transform="translate(623,721)"/>
<path d="M0 0 C0.99 0.33 1.98 0.66 3 1 C2.01 1 1.02 1 0 1 C0 0.67 0 0.34 0 0 Z " fill="#1E2223" transform="translate(682,709)"/>
<path d="M0 0 C1 4 1 4 1 4 Z " fill="#1C211F" transform="translate(874,664)"/>
<path d="M0 0 C1 4 1 4 1 4 Z " fill="#1D2121" transform="translate(870,648)"/>
<path d="M0 0 C0.99 0.495 0.99 0.495 2 1 C1.67 1.66 1.34 2.32 1 3 C0.67 2.01 0.34 1.02 0 0 Z " fill="#21211F" transform="translate(186,380)"/>
<path d="M0 0 C1.485 0.99 1.485 0.99 3 2 C2.01 2 1.02 2 0 2 C0 1.34 0 0.68 0 0 Z " fill="#1F1F20" transform="translate(161,323)"/>
<path d="M0 0 C1 4 1 4 1 4 Z " fill="#202021" transform="translate(622,292)"/>
<path d="M0 0 C0.66 0 1.32 0 2 0 C1.67 0.99 1.34 1.98 1 3 C0.67 2.01 0.34 1.02 0 0 Z " fill="#212121" transform="translate(403,293)"/>
<path d="M0 0 C0.66 0 1.32 0 2 0 C1.67 0.99 1.34 1.98 1 3 C0.67 2.01 0.34 1.02 0 0 Z " fill="#1E1D20" transform="translate(153,269)"/>
<path d="M0 0 C0.99 1.485 0.99 1.485 2 3 C1.34 3 0.68 3 0 3 C0 2.01 0 1.02 0 0 Z " fill="#202022" transform="translate(705,264)"/>
<path d="M0 0 C0.33 0.66 0.66 1.32 1 2 C0.34 1.67 -0.32 1.34 -1 1 C-0.67 0.67 -0.34 0.34 0 0 Z " fill="#1B2221" transform="translate(413,773)"/>
<path d="" fill="#1B2021" transform="translate(0,0)"/>
<path d="" fill="#1B2121" transform="translate(0,0)"/>
<path d="M0 0 C0.66 0 1.32 0 2 0 C1.67 0.66 1.34 1.32 1 2 C0.67 1.34 0.34 0.68 0 0 Z " fill="#1C2321" transform="translate(404,734)"/>
<path d="M0 0 C3 1 3 1 3 1 Z " fill="#1C2020" transform="translate(279,725)"/>
<path d="M0 0 C0.99 0.495 0.99 0.495 2 1 C1.01 1.495 1.01 1.495 0 2 C0 1.34 0 0.68 0 0 Z " fill="#1C1F1F" transform="translate(275,725)"/>
<path d="M0 0 C0.99 0.495 0.99 0.495 2 1 C1.01 1.495 1.01 1.495 0 2 C0 1.34 0 0.68 0 0 Z " fill="#1C1F21" transform="translate(225,724)"/>
<path d="M0 0 C0.66 0 1.32 0 2 0 C1.67 0.66 1.34 1.32 1 2 C0.67 1.34 0.34 0.68 0 0 Z " fill="#1A1E1F" transform="translate(302,722)"/>
<path d="M0 0 C3 1 3 1 3 1 Z " fill="#1D2323" transform="translate(712,719)"/>
<path d="M0 0 C0.99 0.495 0.99 0.495 2 1 C1.01 1.495 1.01 1.495 0 2 C0 1.34 0 0.68 0 0 Z " fill="#1B2021" transform="translate(184,718)"/>
<path d="M0 0 C0.66 0.66 1.32 1.32 2 2 C1.34 2 0.68 2 0 2 C0 1.34 0 0.68 0 0 Z " fill="#1D2121" transform="translate(685,710)"/>
<path d="M0 0 C0.33 0.66 0.66 1.32 1 2 C0.34 1.67 -0.32 1.34 -1 1 C-0.67 0.67 -0.34 0.34 0 0 Z " fill="#1C2220" transform="translate(667,702)"/>
<path d="M0 0 C3 1 3 1 3 1 Z " fill="#1F2325" transform="translate(373,693)"/>
<path d="" fill="#1A2323" transform="translate(0,0)"/>
<path d="M0 0 C0.66 0.66 1.32 1.32 2 2 C1.34 2 0.68 2 0 2 C0 1.34 0 0.68 0 0 Z " fill="#1F2524" transform="translate(632,678)"/>
<path d="M0 0 C0.66 0.66 1.32 1.32 2 2 C1.34 2 0.68 2 0 2 C0 1.34 0 0.68 0 0 Z " fill="#1F2426" transform="translate(624,670)"/>
<path d="" fill="#1C1E22" transform="translate(0,0)"/>
<path d="" fill="#1D1F20" transform="translate(0,0)"/>
<path d="M0 0 C3 1 3 1 3 1 Z " fill="#1B1B21" transform="translate(169,608)"/>
<path d="M0 0 C0.99 0.495 0.99 0.495 2 1 C1.01 1.495 1.01 1.495 0 2 C0 1.34 0 0.68 0 0 Z " fill="#1F2027" transform="translate(217,544)"/>
<path d="M0 0 C3 1 3 1 3 1 Z " fill="#222027" transform="translate(272,504)"/>
<path d="M0 0 C3 1 3 1 3 1 Z " fill="#222323" transform="translate(719,491)"/>
<path d="" fill="#242424" transform="translate(0,0)"/>
<path d="M0 0 C3 1 3 1 3 1 Z " fill="#242425" transform="translate(306,487)"/>
<path d="M0 0 C0.66 0 1.32 0 2 0 C1.67 0.66 1.34 1.32 1 2 C0.67 1.34 0.34 0.68 0 0 Z " fill="#242423" transform="translate(755,470)"/>
<path d="M0 0 C3 1 3 1 3 1 Z " fill="#232422" transform="translate(758,468)"/>
<path d="M0 0 C0.33 0.66 0.66 1.32 1 2 C0.34 1.67 -0.32 1.34 -1 1 C-0.67 0.67 -0.34 0.34 0 0 Z " fill="#222121" transform="translate(221,429)"/>
<path d="" fill="#222221" transform="translate(0,0)"/>
<path d="" fill="#212121" transform="translate(0,0)"/>
<path d="" fill="#222120" transform="translate(0,0)"/>
<path d="M0 0 C0.66 0 1.32 0 2 0 C1.67 0.66 1.34 1.32 1 2 C0.67 1.34 0.34 0.68 0 0 Z " fill="#232121" transform="translate(398,316)"/>
<path d="M0 0 C3 1 3 1 3 1 Z " fill="#222120" transform="translate(631,312)"/>
<path d="" fill="#1F2020" transform="translate(0,0)"/>
<path d="" fill="#222022" transform="translate(0,0)"/>
<path d="M0 0 C0.99 0.495 0.99 0.495 2 1 C1.01 1.495 1.01 1.495 0 2 C0 1.34 0 0.68 0 0 Z " fill="#222121" transform="translate(350,280)"/>
<path d="M0 0 C3 1 3 1 3 1 Z " fill="#201F1F" transform="translate(290,257)"/>
<path d="M0 0 C3 1 3 1 3 1 Z " fill="#202020" transform="translate(245,250)"/>
<path d="M0 0 C0.33 0.66 0.66 1.32 1 2 C0.34 1.67 -0.32 1.34 -1 1 C-0.67 0.67 -0.34 0.34 0 0 Z " fill="#212121" transform="translate(799,249)"/>
<path d="M0 0 C0.33 0.66 0.66 1.32 1 2 C0.34 1.67 -0.32 1.34 -1 1 C-0.67 0.67 -0.34 0.34 0 0 Z " fill="#1F1E1F" transform="translate(481,99)"/>
<path d="" fill="#181F1D" transform="translate(0,0)"/>
<path d="M0 0 C2 1 2 1 2 1 Z " fill="#192221" transform="translate(542,887)"/>
<path d="M0 0 C2 1 2 1 2 1 Z " fill="#1A211F" transform="translate(478,879)"/>
<path d="M0 0 C2 1 2 1 2 1 Z " fill="#191E1E" transform="translate(475,878)"/>
<path d="" fill="#181E1C" transform="translate(0,0)"/>
<path d="M0 0 C2 1 2 1 2 1 Z " fill="#19211F" transform="translate(432,817)"/>
<path d="" fill="#192222" transform="translate(0,0)"/>
<path d="" fill="#1C2322" transform="translate(0,0)"/>
<path d="" fill="#1B211F" transform="translate(0,0)"/>
<path d="" fill="#1A2322" transform="translate(0,0)"/>
<path d="" fill="#1B2222" transform="translate(0,0)"/>
<path d="" fill="#1C201E" transform="translate(0,0)"/>
<path d="M0 0 C2 1 2 1 2 1 Z " fill="#1C2221" transform="translate(805,724)"/>
<path d="M0 0 C2 1 2 1 2 1 Z " fill="#1B211F" transform="translate(738,724)"/>
<path d="M0 0 C2 1 2 1 2 1 Z " fill="#1C2021" transform="translate(286,724)"/>
<path d="M0 0 C2 1 2 1 2 1 Z " fill="#1E1F21" transform="translate(294,723)"/>
<path d="M0 0 C2 1 2 1 2 1 Z " fill="#1C1D1F" transform="translate(206,722)"/>
<path d="M0 0 C2 1 2 1 2 1 Z " fill="#1E201F" transform="translate(841,718)"/>
<path d="M0 0 C2 1 2 1 2 1 Z " fill="#1C2221" transform="translate(850,716)"/>
<path d="M0 0 C2 1 2 1 2 1 Z " fill="#1D2223" transform="translate(680,708)"/>
<path d="M0 0 C2 1 2 1 2 1 Z " fill="#202327" transform="translate(357,703)"/>
<path d="M0 0 C2 1 2 1 2 1 Z " fill="#1C2221" transform="translate(664,700)"/>
<path d="M0 0 C2 1 2 1 2 1 Z " fill="#1E2223" transform="translate(364,699)"/>
<path d="" fill="#1B2424" transform="translate(0,0)"/>
<path d="" fill="#1A2420" transform="translate(0,0)"/>
<path d="" fill="#191E1E" transform="translate(0,0)"/>
<path d="" fill="#181A1E" transform="translate(0,0)"/>
<path d="" fill="#1E2423" transform="translate(0,0)"/>
<path d="" fill="#191F20" transform="translate(0,0)"/>
<path d="M0 0 C2 1 2 1 2 1 Z " fill="#1F2524" transform="translate(641,685)"/>
<path d="" fill="#1D2324" transform="translate(0,0)"/>
<path d="" fill="#1E2323" transform="translate(0,0)"/>
<path d="" fill="#1E2024" transform="translate(0,0)"/>
<path d="" fill="#1D1F24" transform="translate(0,0)"/>
<path d="" fill="#1F2222" transform="translate(0,0)"/>
<path d="" fill="#1E1E23" transform="translate(0,0)"/>
<path d="" fill="#1D1D23" transform="translate(0,0)"/>
<path d="" fill="#1F1F25" transform="translate(0,0)"/>
<path d="" fill="#202321" transform="translate(0,0)"/>
<path d="M0 0 C2 1 2 1 2 1 Z " fill="#202125" transform="translate(258,512)"/>
<path d="M0 0 C2 1 2 1 2 1 Z " fill="#202222" transform="translate(762,505)"/>
<path d="M0 0 C2 1 2 1 2 1 Z " fill="#212126" transform="translate(288,497)"/>
<path d="M0 0 C2 1 2 1 2 1 Z " fill="#222126" transform="translate(290,496)"/>
<path d="" fill="#212323" transform="translate(0,0)"/>
<path d="M0 0 C2 1 2 1 2 1 Z " fill="#252224" transform="translate(296,483)"/>
<path d="M0 0 C2 1 2 1 2 1 Z " fill="#232324" transform="translate(288,479)"/>
<path d="" fill="#232126" transform="translate(0,0)"/>
<path d="M0 0 C2 1 2 1 2 1 Z " fill="#252124" transform="translate(284,477)"/>
<path d="M0 0 C2 1 2 1 2 1 Z " fill="#212323" transform="translate(269,469)"/>
<path d="M0 0 C2 1 2 1 2 1 Z " fill="#222222" transform="translate(256,460)"/>
<path d="M0 0 C2 1 2 1 2 1 Z " fill="#212223" transform="translate(782,454)"/>
<path d="M0 0 C2 1 2 1 2 1 Z " fill="#232223" transform="translate(239,447)"/>
<path d="" fill="#222323" transform="translate(0,0)"/>
<path d="M0 0 C2 1 2 1 2 1 Z " fill="#201F21" transform="translate(225,437)"/>
<path d="M0 0 C2 1 2 1 2 1 Z " fill="#222121" transform="translate(225,435)"/>
<path d="M0 0 C2 1 2 1 2 1 Z " fill="#212121" transform="translate(224,433)"/>
<path d="M0 0 C2 1 2 1 2 1 Z " fill="#21211F" transform="translate(216,427)"/>
<path d="M0 0 C2 1 2 1 2 1 Z " fill="#212423" transform="translate(216,423)"/>
<path d="M0 0 C2 1 2 1 2 1 Z " fill="#222122" transform="translate(823,407)"/>
<path d="" fill="#212220" transform="translate(0,0)"/>
<path d="M0 0 C2 1 2 1 2 1 Z " fill="#232121" transform="translate(193,395)"/>
<path d="" fill="#222321" transform="translate(0,0)"/>
<path d="M0 0 C2 1 2 1 2 1 Z " fill="#212021" transform="translate(170,347)"/>
<path d="" fill="#212222" transform="translate(0,0)"/>
<path d="" fill="#242422" transform="translate(0,0)"/>
<path d="" fill="#222122" transform="translate(0,0)"/>
<path d="" fill="#22211F" transform="translate(0,0)"/>
<path d="" fill="#212020" transform="translate(0,0)"/>
<path d="" fill="#212020" transform="translate(0,0)"/>
<path d="M0 0 C2 1 2 1 2 1 Z " fill="#212220" transform="translate(648,296)"/>
<path d="" fill="#222223" transform="translate(0,0)"/>
<path d="M0 0 C2 1 2 1 2 1 Z " fill="#242221" transform="translate(366,291)"/>
<path d="" fill="#212022" transform="translate(0,0)"/>
<path d="M0 0 C2 1 2 1 2 1 Z " fill="#232222" transform="translate(675,281)"/>
<path d="" fill="#212022" transform="translate(0,0)"/>
<path d="" fill="#202122" transform="translate(0,0)"/>
<path d="" fill="#222121" transform="translate(0,0)"/>
<path d="" fill="#1F1E1E" transform="translate(0,0)"/>
<path d="" fill="#221F21" transform="translate(0,0)"/>
<path d="M0 0 C2 1 2 1 2 1 Z " fill="#222020" transform="translate(322,265)"/>
<path d="" fill="#212120" transform="translate(0,0)"/>
<path d="M0 0 C2 1 2 1 2 1 Z " fill="#1D1F1D" transform="translate(859,257)"/>
<path d="M0 0 C2 1 2 1 2 1 Z " fill="#201F20" transform="translate(752,253)"/>
<path d="M0 0 C2 1 2 1 2 1 Z " fill="#1F1D1E" transform="translate(184,253)"/>
<path d="M0 0 C2 1 2 1 2 1 Z " fill="#1F2121" transform="translate(790,250)"/>
<path d="" fill="#212121" transform="translate(0,0)"/>
<path d="M0 0 C2 1 2 1 2 1 Z " fill="#212121" transform="translate(785,250)"/>
<path d="M0 0 C2 1 2 1 2 1 Z " fill="#212120" transform="translate(777,250)"/>
<path d="M0 0 C2 1 2 1 2 1 Z " fill="#21201F" transform="translate(249,250)"/>
<path d="M0 0 C2 1 2 1 2 1 Z " fill="#202020" transform="translate(210,250)"/>
<path d="M0 0 C2 1 2 1 2 1 Z " fill="#202022" transform="translate(796,248)"/>
<path d="M0 0 C2 1 2 1 2 1 Z " fill="#222020" transform="translate(613,215)"/>
<path d="" fill="#201F1F" transform="translate(0,0)"/>
<path d="" fill="#1E2120" transform="translate(0,0)"/>
<path d="M0 0 C2 1 2 1 2 1 Z " fill="#1F1E20" transform="translate(433,160)"/>
<path d="" fill="#1E1F1F" transform="translate(0,0)"/>
<path d="M0 0 C2 1 2 1 2 1 Z " fill="#1D1F20" transform="translate(542,96)"/>
<path d="" fill="#1E2020" transform="translate(0,0)"/>
<path d="M0 0 C2 1 2 1 2 1 Z " fill="#1C1D1E" transform="translate(526,80)"/>
<path d="" fill="#000000" transform="translate(0,0)"/>
<path d="" fill="#181F1B" transform="translate(0,0)"/>
<path d="" fill="#1A2020" transform="translate(0,0)"/>
<path d="" fill="#161E1D" transform="translate(0,0)"/>
<path d="" fill="#000000" transform="translate(0,0)"/>
<path d="" fill="#19201F" transform="translate(0,0)"/>
<path d="" fill="#161B1D" transform="translate(0,0)"/>
<path d="" fill="#161F1B" transform="translate(0,0)"/>
<path d="" fill="#181D1C" transform="translate(0,0)"/>
<path d="" fill="#171E1C" transform="translate(0,0)"/>
<path d="" fill="#181F1E" transform="translate(0,0)"/>
<path d="" fill="#191F1D" transform="translate(0,0)"/>
<path d="" fill="#1D2320" transform="translate(0,0)"/>
<path d="" fill="#000000" transform="translate(0,0)"/>
<path d="" fill="#1B2321" transform="translate(0,0)"/>
<path d="" fill="#1A2020" transform="translate(0,0)"/>
<path d="" fill="#18201E" transform="translate(0,0)"/>
<path d="" fill="#1B201F" transform="translate(0,0)"/>
<path d="" fill="#18201D" transform="translate(0,0)"/>
<path d="" fill="#192020" transform="translate(0,0)"/>
<path d="" fill="#1C231F" transform="translate(0,0)"/>
<path d="" fill="#18211C" transform="translate(0,0)"/>
<path d="" fill="#192122" transform="translate(0,0)"/>
<path d="" fill="#1A2020" transform="translate(0,0)"/>
<path d="" fill="#1A211F" transform="translate(0,0)"/>
<path d="" fill="#1C1F1F" transform="translate(0,0)"/>
<path d="" fill="#191F1E" transform="translate(0,0)"/>
<path d="" fill="#1B201E" transform="translate(0,0)"/>
<path d="" fill="#18221F" transform="translate(0,0)"/>
<path d="" fill="#1D2323" transform="translate(0,0)"/>
<path d="" fill="#1A221F" transform="translate(0,0)"/>
<path d="" fill="#192021" transform="translate(0,0)"/>
<path d="" fill="#1B211E" transform="translate(0,0)"/>
<path d="" fill="#1A2322" transform="translate(0,0)"/>
<path d="" fill="#1B211F" transform="translate(0,0)"/>
<path d="" fill="#1E2424" transform="translate(0,0)"/>
<path d="" fill="#1C2421" transform="translate(0,0)"/>
<path d="" fill="#1B2321" transform="translate(0,0)"/>
<path d="" fill="#1A2421" transform="translate(0,0)"/>
<path d="" fill="#1D2220" transform="translate(0,0)"/>
<path d="" fill="#1C2321" transform="translate(0,0)"/>
<path d="" fill="#1A2220" transform="translate(0,0)"/>
<path d="" fill="#1A2321" transform="translate(0,0)"/>
<path d="" fill="#1A2122" transform="translate(0,0)"/>
<path d="" fill="#040505" transform="translate(0,0)"/>
<path d="" fill="#1A2123" transform="translate(0,0)"/>
<path d="" fill="#1D2321" transform="translate(0,0)"/>
<path d="" fill="#1C2221" transform="translate(0,0)"/>
<path d="" fill="#070909" transform="translate(0,0)"/>
<path d="" fill="#1C2021" transform="translate(0,0)"/>
<path d="" fill="#1C2323" transform="translate(0,0)"/>
<path d="" fill="#1A2021" transform="translate(0,0)"/>
<path d="" fill="#192123" transform="translate(0,0)"/>
<path d="" fill="#1B2424" transform="translate(0,0)"/>
<path d="" fill="#1C2122" transform="translate(0,0)"/>
<path d="" fill="#1B2221" transform="translate(0,0)"/>
<path d="" fill="#1B2320" transform="translate(0,0)"/>
<path d="" fill="#1B2522" transform="translate(0,0)"/>
<path d="" fill="#191E1C" transform="translate(0,0)"/>
<path d="" fill="#1C2323" transform="translate(0,0)"/>
<path d="" fill="#1A1F1C" transform="translate(0,0)"/>
<path d="" fill="#1B201F" transform="translate(0,0)"/>
<path d="" fill="#1B1E20" transform="translate(0,0)"/>
<path d="" fill="#1B1E1D" transform="translate(0,0)"/>
<path d="" fill="#1D201F" transform="translate(0,0)"/>
<path d="" fill="#19211D" transform="translate(0,0)"/>
<path d="" fill="#18201E" transform="translate(0,0)"/>
<path d="" fill="#1C1F20" transform="translate(0,0)"/>
<path d="" fill="#191E1E" transform="translate(0,0)"/>
<path d="" fill="#1C201F" transform="translate(0,0)"/>
<path d="" fill="#1C1E20" transform="translate(0,0)"/>
<path d="" fill="#1A1F1F" transform="translate(0,0)"/>
<path d="" fill="#1E2220" transform="translate(0,0)"/>
<path d="" fill="#1C2322" transform="translate(0,0)"/>
<path d="" fill="#1C1F1F" transform="translate(0,0)"/>
<path d="" fill="#1D2020" transform="translate(0,0)"/>
<path d="" fill="#1A2120" transform="translate(0,0)"/>
<path d="" fill="#1E2322" transform="translate(0,0)"/>
<path d="" fill="#1D211E" transform="translate(0,0)"/>
<path d="" fill="#1D2222" transform="translate(0,0)"/>
<path d="" fill="#1C2121" transform="translate(0,0)"/>
<path d="" fill="#1B201F" transform="translate(0,0)"/>
<path d="" fill="#1B211E" transform="translate(0,0)"/>
<path d="" fill="#1C1F20" transform="translate(0,0)"/>
<path d="" fill="#1C201E" transform="translate(0,0)"/>
<path d="" fill="#1B1F22" transform="translate(0,0)"/>
<path d="" fill="#1C211F" transform="translate(0,0)"/>
<path d="" fill="#1C2322" transform="translate(0,0)"/>
<path d="" fill="#1F2321" transform="translate(0,0)"/>
<path d="" fill="#181D1E" transform="translate(0,0)"/>
<path d="" fill="#1D2020" transform="translate(0,0)"/>
<path d="" fill="#1A2125" transform="translate(0,0)"/>
<path d="" fill="#1C1F22" transform="translate(0,0)"/>
<path d="" fill="#1F2121" transform="translate(0,0)"/>
<path d="" fill="#1B2021" transform="translate(0,0)"/>
<path d="" fill="#1B1E1F" transform="translate(0,0)"/>
<path d="" fill="#1C2320" transform="translate(0,0)"/>
<path d="" fill="#1C2322" transform="translate(0,0)"/>
<path d="" fill="#1D2223" transform="translate(0,0)"/>
<path d="" fill="#1E2324" transform="translate(0,0)"/>
<path d="" fill="#1C201F" transform="translate(0,0)"/>
<path d="" fill="#1A1F20" transform="translate(0,0)"/>
<path d="" fill="#191D1E" transform="translate(0,0)"/>
<path d="" fill="#1D2523" transform="translate(0,0)"/>
<path d="" fill="#1C2021" transform="translate(0,0)"/>
<path d="" fill="#1F2025" transform="translate(0,0)"/>
<path d="" fill="#181A1D" transform="translate(0,0)"/>
<path d="" fill="#181A1E" transform="translate(0,0)"/>
<path d="" fill="#1E2024" transform="translate(0,0)"/>
<path d="" fill="#1F2223" transform="translate(0,0)"/>
<path d="" fill="#181A1F" transform="translate(0,0)"/>
<path d="" fill="#181A21" transform="translate(0,0)"/>
<path d="" fill="#181A1C" transform="translate(0,0)"/>
<path d="" fill="#181F1E" transform="translate(0,0)"/>
<path d="" fill="#1C2323" transform="translate(0,0)"/>
<path d="" fill="#1C2321" transform="translate(0,0)"/>
<path d="" fill="#1D2322" transform="translate(0,0)"/>
<path d="" fill="#1D2023" transform="translate(0,0)"/>
<path d="" fill="#1C2320" transform="translate(0,0)"/>
<path d="" fill="#1E2023" transform="translate(0,0)"/>
<path d="" fill="#1B2122" transform="translate(0,0)"/>
<path d="" fill="#1A201F" transform="translate(0,0)"/>
<path d="" fill="#1D2424" transform="translate(0,0)"/>
<path d="" fill="#1C2023" transform="translate(0,0)"/>
<path d="" fill="#171A1C" transform="translate(0,0)"/>
<path d="" fill="#1E2522" transform="translate(0,0)"/>
<path d="" fill="#1C2322" transform="translate(0,0)"/>
<path d="" fill="#1D2224" transform="translate(0,0)"/>
<path d="" fill="#191B1D" transform="translate(0,0)"/>
<path d="" fill="#191E1D" transform="translate(0,0)"/>
<path d="" fill="#1D2124" transform="translate(0,0)"/>
<path d="" fill="#1F2125" transform="translate(0,0)"/>
<path d="" fill="#191E1E" transform="translate(0,0)"/>
<path d="" fill="#16171B" transform="translate(0,0)"/>
<path d="" fill="#1A1F1E" transform="translate(0,0)"/>
<path d="" fill="#1E2323" transform="translate(0,0)"/>
<path d="" fill="#1B2425" transform="translate(0,0)"/>
<path d="" fill="#1F2325" transform="translate(0,0)"/>
<path d="" fill="#1E2222" transform="translate(0,0)"/>
<path d="" fill="#1F2621" transform="translate(0,0)"/>
<path d="" fill="#1C2421" transform="translate(0,0)"/>
<path d="" fill="#1C1B20" transform="translate(0,0)"/>
<path d="" fill="#202424" transform="translate(0,0)"/>
<path d="" fill="#212225" transform="translate(0,0)"/>
<path d="" fill="#1F2223" transform="translate(0,0)"/>
<path d="" fill="#1E2323" transform="translate(0,0)"/>
<path d="" fill="#1D2424" transform="translate(0,0)"/>
<path d="" fill="#212426" transform="translate(0,0)"/>
<path d="" fill="#1B221F" transform="translate(0,0)"/>
<path d="" fill="#1F2124" transform="translate(0,0)"/>
<path d="" fill="#202123" transform="translate(0,0)"/>
<path d="" fill="#1F2223" transform="translate(0,0)"/>
<path d="" fill="#1E2524" transform="translate(0,0)"/>
<path d="" fill="#1D2222" transform="translate(0,0)"/>
<path d="" fill="#1C1F21" transform="translate(0,0)"/>
<path d="" fill="#1F2624" transform="translate(0,0)"/>
<path d="" fill="#1F2221" transform="translate(0,0)"/>
<path d="" fill="#212522" transform="translate(0,0)"/>
<path d="" fill="#1F2523" transform="translate(0,0)"/>
<path d="" fill="#222426" transform="translate(0,0)"/>
<path d="" fill="#1F2324" transform="translate(0,0)"/>
<path d="" fill="#1A1C21" transform="translate(0,0)"/>
<path d="" fill="#1C1D22" transform="translate(0,0)"/>
<path d="" fill="#1C1B20" transform="translate(0,0)"/>
<path d="" fill="#1D1D21" transform="translate(0,0)"/>
<path d="" fill="#1F2221" transform="translate(0,0)"/>
<path d="" fill="#1E2121" transform="translate(0,0)"/>
<path d="" fill="#1F1F23" transform="translate(0,0)"/>
<path d="" fill="#1C1B1E" transform="translate(0,0)"/>
<path d="" fill="#1F1F22" transform="translate(0,0)"/>
<path d="" fill="#1E2423" transform="translate(0,0)"/>
<path d="" fill="#1F2024" transform="translate(0,0)"/>
<path d="" fill="#1F2120" transform="translate(0,0)"/>
<path d="" fill="#1D1F24" transform="translate(0,0)"/>
<path d="" fill="#1C201E" transform="translate(0,0)"/>
<path d="" fill="#1E1E24" transform="translate(0,0)"/>
<path d="" fill="#1E1D23" transform="translate(0,0)"/>
<path d="" fill="#1D1D22" transform="translate(0,0)"/>
<path d="" fill="#1D1A1E" transform="translate(0,0)"/>
<path d="" fill="#1B1B20" transform="translate(0,0)"/>
<path d="" fill="#202120" transform="translate(0,0)"/>
<path d="" fill="#1F1F24" transform="translate(0,0)"/>
<path d="" fill="#1C2021" transform="translate(0,0)"/>
<path d="" fill="#1D1C24" transform="translate(0,0)"/>
<path d="" fill="#1E2120" transform="translate(0,0)"/>
<path d="" fill="#1F1D23" transform="translate(0,0)"/>
<path d="" fill="#211B22" transform="translate(0,0)"/>
<path d="" fill="#1F2121" transform="translate(0,0)"/>
<path d="" fill="#1F201F" transform="translate(0,0)"/>
<path d="" fill="#202225" transform="translate(0,0)"/>
<path d="" fill="#202024" transform="translate(0,0)"/>
<path d="" fill="#212320" transform="translate(0,0)"/>
<path d="" fill="#202024" transform="translate(0,0)"/>
<path d="" fill="#202126" transform="translate(0,0)"/>
<path d="" fill="#202228" transform="translate(0,0)"/>
<path d="" fill="#1B1F22" transform="translate(0,0)"/>
<path d="" fill="#1F1F25" transform="translate(0,0)"/>
<path d="" fill="#1E2121" transform="translate(0,0)"/>
<path d="" fill="#221F27" transform="translate(0,0)"/>
<path d="" fill="#221F26" transform="translate(0,0)"/>
<path d="" fill="#212127" transform="translate(0,0)"/>
<path d="" fill="#212025" transform="translate(0,0)"/>
<path d="" fill="#202220" transform="translate(0,0)"/>
<path d="" fill="#1F2023" transform="translate(0,0)"/>
<path d="" fill="#212121" transform="translate(0,0)"/>
<path d="" fill="#222227" transform="translate(0,0)"/>
<path d="" fill="#202221" transform="translate(0,0)"/>
<path d="" fill="#222129" transform="translate(0,0)"/>
<path d="" fill="#222124" transform="translate(0,0)"/>
<path d="" fill="#1E2124" transform="translate(0,0)"/>
<path d="" fill="#1F2120" transform="translate(0,0)"/>
<path d="" fill="#212223" transform="translate(0,0)"/>
<path d="" fill="#222321" transform="translate(0,0)"/>
<path d="" fill="#221F25" transform="translate(0,0)"/>
<path d="" fill="#21231F" transform="translate(0,0)"/>
<path d="" fill="#202227" transform="translate(0,0)"/>
<path d="" fill="#1F1F23" transform="translate(0,0)"/>
<path d="" fill="#201F26" transform="translate(0,0)"/>
<path d="" fill="#202221" transform="translate(0,0)"/>
<path d="" fill="#222024" transform="translate(0,0)"/>
<path d="" fill="#232226" transform="translate(0,0)"/>
<path d="" fill="#201F26" transform="translate(0,0)"/>
<path d="" fill="#222221" transform="translate(0,0)"/>
<path d="" fill="#212128" transform="translate(0,0)"/>
<path d="" fill="#222226" transform="translate(0,0)"/>
<path d="" fill="#1F2222" transform="translate(0,0)"/>
<path d="" fill="#231F21" transform="translate(0,0)"/>
<path d="" fill="#212124" transform="translate(0,0)"/>
<path d="" fill="#202325" transform="translate(0,0)"/>
<path d="" fill="#222426" transform="translate(0,0)"/>
<path d="" fill="#232322" transform="translate(0,0)"/>
<path d="" fill="#242224" transform="translate(0,0)"/>
<path d="" fill="#000000" transform="translate(0,0)"/>
<path d="" fill="#262525" transform="translate(0,0)"/>
<path d="" fill="#222126" transform="translate(0,0)"/>
<path d="" fill="#232128" transform="translate(0,0)"/>
<path d="" fill="#252525" transform="translate(0,0)"/>
<path d="" fill="#242223" transform="translate(0,0)"/>
<path d="" fill="#232125" transform="translate(0,0)"/>
<path d="" fill="#232222" transform="translate(0,0)"/>
<path d="" fill="#222022" transform="translate(0,0)"/>
<path d="" fill="#252223" transform="translate(0,0)"/>
<path d="" fill="#252522" transform="translate(0,0)"/>
<path d="" fill="#232223" transform="translate(0,0)"/>
<path d="" fill="#222425" transform="translate(0,0)"/>
<path d="" fill="#222123" transform="translate(0,0)"/>
<path d="" fill="#242325" transform="translate(0,0)"/>
<path d="" fill="#22241F" transform="translate(0,0)"/>
<path d="" fill="#232324" transform="translate(0,0)"/>
<path d="" fill="#202022" transform="translate(0,0)"/>
<path d="" fill="#221F24" transform="translate(0,0)"/>
<path d="" fill="#252223" transform="translate(0,0)"/>
<path d="" fill="#222223" transform="translate(0,0)"/>
<path d="" fill="#1F1F21" transform="translate(0,0)"/>
<path d="" fill="#242323" transform="translate(0,0)"/>
<path d="" fill="#222425" transform="translate(0,0)"/>
<path d="" fill="#202025" transform="translate(0,0)"/>
<path d="" fill="#252522" transform="translate(0,0)"/>
<path d="" fill="#262324" transform="translate(0,0)"/>
<path d="" fill="#242424" transform="translate(0,0)"/>
<path d="" fill="#222223" transform="translate(0,0)"/>
<path d="" fill="#242122" transform="translate(0,0)"/>
<path d="" fill="#242527" transform="translate(0,0)"/>
<path d="" fill="#202020" transform="translate(0,0)"/>
<path d="" fill="#232423" transform="translate(0,0)"/>
<path d="" fill="#222221" transform="translate(0,0)"/>
<path d="" fill="#252322" transform="translate(0,0)"/>
<path d="" fill="#212021" transform="translate(0,0)"/>
<path d="" fill="#212324" transform="translate(0,0)"/>
<path d="" fill="#222220" transform="translate(0,0)"/>
<path d="" fill="#222021" transform="translate(0,0)"/>
<path d="" fill="#212322" transform="translate(0,0)"/>
<path d="" fill="#222323" transform="translate(0,0)"/>
<path d="" fill="#222523" transform="translate(0,0)"/>
<path d="" fill="#252323" transform="translate(0,0)"/>
<path d="" fill="#212221" transform="translate(0,0)"/>
<path d="" fill="#232223" transform="translate(0,0)"/>
<path d="" fill="#212320" transform="translate(0,0)"/>
<path d="" fill="#202223" transform="translate(0,0)"/>
<path d="" fill="#232222" transform="translate(0,0)"/>
<path d="" fill="#221E20" transform="translate(0,0)"/>
<path d="" fill="#212220" transform="translate(0,0)"/>
<path d="" fill="#252424" transform="translate(0,0)"/>
<path d="" fill="#242524" transform="translate(0,0)"/>
<path d="" fill="#232223" transform="translate(0,0)"/>
<path d="" fill="#232121" transform="translate(0,0)"/>
<path d="" fill="#202421" transform="translate(0,0)"/>
<path d="" fill="#222021" transform="translate(0,0)"/>
<path d="" fill="#232121" transform="translate(0,0)"/>
<path d="" fill="#211E21" transform="translate(0,0)"/>
<path d="" fill="#201F1E" transform="translate(0,0)"/>
<path d="" fill="#222220" transform="translate(0,0)"/>
<path d="" fill="#222121" transform="translate(0,0)"/>
<path d="" fill="#222223" transform="translate(0,0)"/>
<path d="" fill="#222321" transform="translate(0,0)"/>
<path d="" fill="#202221" transform="translate(0,0)"/>
<path d="" fill="#22201F" transform="translate(0,0)"/>
<path d="" fill="#231F1E" transform="translate(0,0)"/>
<path d="" fill="#1E211E" transform="translate(0,0)"/>
<path d="" fill="#222221" transform="translate(0,0)"/>
<path d="" fill="#202020" transform="translate(0,0)"/>
<path d="" fill="#222120" transform="translate(0,0)"/>
<path d="" fill="#252123" transform="translate(0,0)"/>
<path d="" fill="#232222" transform="translate(0,0)"/>
<path d="" fill="#212223" transform="translate(0,0)"/>
<path d="" fill="#202323" transform="translate(0,0)"/>
<path d="" fill="#222022" transform="translate(0,0)"/>
<path d="" fill="#232123" transform="translate(0,0)"/>
<path d="" fill="#21211F" transform="translate(0,0)"/>
<path d="" fill="#242222" transform="translate(0,0)"/>
<path d="" fill="#23201F" transform="translate(0,0)"/>
<path d="" fill="#222020" transform="translate(0,0)"/>
<path d="" fill="#201E1F" transform="translate(0,0)"/>
<path d="" fill="#242120" transform="translate(0,0)"/>
<path d="" fill="#221E1F" transform="translate(0,0)"/>
<path d="" fill="#232121" transform="translate(0,0)"/>
<path d="" fill="#21231E" transform="translate(0,0)"/>
<path d="" fill="#232421" transform="translate(0,0)"/>
<path d="" fill="#20201E" transform="translate(0,0)"/>
<path d="" fill="#222222" transform="translate(0,0)"/>
<path d="" fill="#232122" transform="translate(0,0)"/>
<path d="" fill="#222221" transform="translate(0,0)"/>
<path d="" fill="#242123" transform="translate(0,0)"/>
<path d="" fill="#201F1F" transform="translate(0,0)"/>
<path d="" fill="#222221" transform="translate(0,0)"/>
<path d="" fill="#222122" transform="translate(0,0)"/>
<path d="" fill="#202121" transform="translate(0,0)"/>
<path d="" fill="#212121" transform="translate(0,0)"/>
<path d="" fill="#211F22" transform="translate(0,0)"/>
<path d="" fill="#202122" transform="translate(0,0)"/>
<path d="" fill="#1F2022" transform="translate(0,0)"/>
<path d="" fill="#252624" transform="translate(0,0)"/>
<path d="" fill="#201E21" transform="translate(0,0)"/>
<path d="" fill="#252325" transform="translate(0,0)"/>
<path d="" fill="#242422" transform="translate(0,0)"/>
<path d="" fill="#232323" transform="translate(0,0)"/>
<path d="" fill="#232221" transform="translate(0,0)"/>
<path d="" fill="#242023" transform="translate(0,0)"/>
<path d="" fill="#21211E" transform="translate(0,0)"/>
<path d="" fill="#222122" transform="translate(0,0)"/>
<path d="" fill="#232423" transform="translate(0,0)"/>
<path d="" fill="#202220" transform="translate(0,0)"/>
<path d="" fill="#22201E" transform="translate(0,0)"/>
<path d="" fill="#232421" transform="translate(0,0)"/>
<path d="" fill="#222122" transform="translate(0,0)"/>
<path d="" fill="#21211F" transform="translate(0,0)"/>
<path d="" fill="#23201F" transform="translate(0,0)"/>
<path d="" fill="#222423" transform="translate(0,0)"/>
<path d="" fill="#212222" transform="translate(0,0)"/>
<path d="" fill="#222121" transform="translate(0,0)"/>
<path d="" fill="#282423" transform="translate(0,0)"/>
<path d="" fill="#222022" transform="translate(0,0)"/>
<path d="" fill="#232221" transform="translate(0,0)"/>
<path d="" fill="#222321" transform="translate(0,0)"/>
<path d="" fill="#1E1E1E" transform="translate(0,0)"/>
<path d="" fill="#1F1F20" transform="translate(0,0)"/>
<path d="" fill="#262424" transform="translate(0,0)"/>
<path d="" fill="#202322" transform="translate(0,0)"/>
<path d="" fill="#1F1E20" transform="translate(0,0)"/>
<path d="" fill="#212120" transform="translate(0,0)"/>
<path d="" fill="#232123" transform="translate(0,0)"/>
<path d="" fill="#202220" transform="translate(0,0)"/>
<path d="" fill="#222121" transform="translate(0,0)"/>
<path d="" fill="#1F2021" transform="translate(0,0)"/>
<path d="" fill="#212223" transform="translate(0,0)"/>
<path d="" fill="#0C0C0C" transform="translate(0,0)"/>
<path d="" fill="#222322" transform="translate(0,0)"/>
<path d="" fill="#201F20" transform="translate(0,0)"/>
<path d="" fill="#222022" transform="translate(0,0)"/>
<path d="" fill="#232321" transform="translate(0,0)"/>
<path d="" fill="#212320" transform="translate(0,0)"/>
<path d="" fill="#222020" transform="translate(0,0)"/>
<path d="" fill="#242020" transform="translate(0,0)"/>
<path d="" fill="#22201F" transform="translate(0,0)"/>
<path d="" fill="#222120" transform="translate(0,0)"/>
<path d="" fill="#211E1D" transform="translate(0,0)"/>
<path d="" fill="#212021" transform="translate(0,0)"/>
<path d="" fill="#232222" transform="translate(0,0)"/>
<path d="" fill="#212022" transform="translate(0,0)"/>
<path d="" fill="#212021" transform="translate(0,0)"/>
<path d="" fill="#222122" transform="translate(0,0)"/>
<path d="" fill="#24211E" transform="translate(0,0)"/>
<path d="" fill="#1F1F1F" transform="translate(0,0)"/>
<path d="" fill="#212122" transform="translate(0,0)"/>
<path d="" fill="#212023" transform="translate(0,0)"/>
<path d="" fill="#1F201F" transform="translate(0,0)"/>
<path d="" fill="#221F1F" transform="translate(0,0)"/>
<path d="" fill="#20201F" transform="translate(0,0)"/>
<path d="" fill="#201E20" transform="translate(0,0)"/>
<path d="" fill="#221E20" transform="translate(0,0)"/>
<path d="" fill="#242120" transform="translate(0,0)"/>
<path d="" fill="#222121" transform="translate(0,0)"/>
<path d="" fill="#212020" transform="translate(0,0)"/>
<path d="" fill="#211E1E" transform="translate(0,0)"/>
<path d="" fill="#201F21" transform="translate(0,0)"/>
<path d="" fill="#212122" transform="translate(0,0)"/>
<path d="" fill="#21221F" transform="translate(0,0)"/>
<path d="" fill="#1D1F1E" transform="translate(0,0)"/>
<path d="" fill="#211E1E" transform="translate(0,0)"/>
<path d="" fill="#1E201F" transform="translate(0,0)"/>
<path d="" fill="#1F2321" transform="translate(0,0)"/>
<path d="" fill="#212120" transform="translate(0,0)"/>
<path d="" fill="#222122" transform="translate(0,0)"/>
<path d="" fill="#21221F" transform="translate(0,0)"/>
<path d="" fill="#201F22" transform="translate(0,0)"/>
<path d="" fill="#22211F" transform="translate(0,0)"/>
<path d="" fill="#201E1F" transform="translate(0,0)"/>
<path d="" fill="#1F1F1F" transform="translate(0,0)"/>
<path d="" fill="#1B1C1A" transform="translate(0,0)"/>
<path d="" fill="#20211F" transform="translate(0,0)"/>
<path d="" fill="#202020" transform="translate(0,0)"/>
<path d="" fill="#201E1F" transform="translate(0,0)"/>
<path d="" fill="#20201F" transform="translate(0,0)"/>
<path d="" fill="#21201F" transform="translate(0,0)"/>
<path d="" fill="#212021" transform="translate(0,0)"/>
<path d="" fill="#21201F" transform="translate(0,0)"/>
<path d="" fill="#211F1F" transform="translate(0,0)"/>
<path d="" fill="#212120" transform="translate(0,0)"/>
<path d="" fill="#212221" transform="translate(0,0)"/>
<path d="" fill="#222021" transform="translate(0,0)"/>
<path d="" fill="#212321" transform="translate(0,0)"/>
<path d="" fill="#20211F" transform="translate(0,0)"/>
<path d="" fill="#212121" transform="translate(0,0)"/>
<path d="" fill="#21211F" transform="translate(0,0)"/>
<path d="" fill="#222221" transform="translate(0,0)"/>
<path d="" fill="#222022" transform="translate(0,0)"/>
<path d="" fill="#212024" transform="translate(0,0)"/>
<path d="" fill="#201F1F" transform="translate(0,0)"/>
<path d="" fill="#222122" transform="translate(0,0)"/>
<path d="" fill="#202020" transform="translate(0,0)"/>
<path d="" fill="#1F1F20" transform="translate(0,0)"/>
<path d="" fill="#20201F" transform="translate(0,0)"/>
<path d="" fill="#202021" transform="translate(0,0)"/>
<path d="" fill="#202021" transform="translate(0,0)"/>
<path d="" fill="#201F20" transform="translate(0,0)"/>
<path d="" fill="#1E211F" transform="translate(0,0)"/>
<path d="" fill="#222323" transform="translate(0,0)"/>
<path d="" fill="#1F1E21" transform="translate(0,0)"/>
<path d="" fill="#1F1E1F" transform="translate(0,0)"/>
<path d="" fill="#222321" transform="translate(0,0)"/>
<path d="" fill="#232021" transform="translate(0,0)"/>
<path d="" fill="#242125" transform="translate(0,0)"/>
<path d="" fill="#20201E" transform="translate(0,0)"/>
<path d="" fill="#000000" transform="translate(0,0)"/>
<path d="" fill="#212021" transform="translate(0,0)"/>
<path d="" fill="#212021" transform="translate(0,0)"/>
<path d="" fill="#20201F" transform="translate(0,0)"/>
<path d="" fill="#1F1F20" transform="translate(0,0)"/>
<path d="" fill="#212021" transform="translate(0,0)"/>
<path d="" fill="#201F1D" transform="translate(0,0)"/>
<path d="" fill="#1F1E23" transform="translate(0,0)"/>
<path d="" fill="#201F1F" transform="translate(0,0)"/>
<path d="" fill="#20211F" transform="translate(0,0)"/>
<path d="" fill="#202020" transform="translate(0,0)"/>
<path d="" fill="#211E1E" transform="translate(0,0)"/>
<path d="" fill="#221E1E" transform="translate(0,0)"/>
<path d="" fill="#221E20" transform="translate(0,0)"/>
<path d="" fill="#211F20" transform="translate(0,0)"/>
<path d="" fill="#1E201F" transform="translate(0,0)"/>
<path d="" fill="#232220" transform="translate(0,0)"/>
<path d="" fill="#21211F" transform="translate(0,0)"/>
<path d="" fill="#232021" transform="translate(0,0)"/>
<path d="" fill="#1F1C1F" transform="translate(0,0)"/>
<path d="" fill="#1D221E" transform="translate(0,0)"/>
<path d="" fill="#23211E" transform="translate(0,0)"/>
<path d="" fill="#221F20" transform="translate(0,0)"/>
<path d="" fill="#202121" transform="translate(0,0)"/>
<path d="" fill="#212020" transform="translate(0,0)"/>
<path d="" fill="#1E1D20" transform="translate(0,0)"/>
<path d="" fill="#1F1F20" transform="translate(0,0)"/>
<path d="" fill="#201F20" transform="translate(0,0)"/>
<path d="" fill="#1F1D1E" transform="translate(0,0)"/>
<path d="" fill="#1C1D1E" transform="translate(0,0)"/>
<path d="" fill="#1B1D1E" transform="translate(0,0)"/>
<path d="" fill="#1E1D1E" transform="translate(0,0)"/>
<path d="" fill="#1A1B1A" transform="translate(0,0)"/>
<path d="" fill="#201F1F" transform="translate(0,0)"/>
<path d="" fill="#221F20" transform="translate(0,0)"/>
<path d="" fill="#1E1E1E" transform="translate(0,0)"/>
<path d="" fill="#1C1E1C" transform="translate(0,0)"/>
<path d="" fill="#1C1C1C" transform="translate(0,0)"/>
<path d="" fill="#1D1C1D" transform="translate(0,0)"/>
<path d="" fill="#1E201F" transform="translate(0,0)"/>
<path d="" fill="#1D201E" transform="translate(0,0)"/>
<path d="" fill="#1E1F1F" transform="translate(0,0)"/>
<path d="" fill="#1E2020" transform="translate(0,0)"/>
<path d="" fill="#1C1F1E" transform="translate(0,0)"/>
<path d="" fill="#1D1E1F" transform="translate(0,0)"/>
<path d="" fill="#1E1F1E" transform="translate(0,0)"/>
<path d="" fill="#1B1A1B" transform="translate(0,0)"/>
<path d="" fill="#1E1D1F" transform="translate(0,0)"/>
<path d="" fill="#1D1F1E" transform="translate(0,0)"/>
<path d="" fill="#1D1E1C" transform="translate(0,0)"/>
<path d="" fill="#000000" transform="translate(0,0)"/>
<path d="" fill="#1A1D1C" transform="translate(0,0)"/>
<path d="" fill="#1B1D1C" transform="translate(0,0)"/>
<path d="" fill="#1C1D1C" transform="translate(0,0)"/>
<path d="" fill="#1A1B1D" transform="translate(0,0)"/>
<path d="" fill="#0A0908" transform="translate(0,0)"/>
<path d="" fill="#000000" transform="translate(0,0)"/>
</svg>
